<?xml version="1.0" encoding="UTF-8" standalone="no"?>
<svg
   xmlns:dc="http://purl.org/dc/elements/1.1/"
   xmlns:cc="http://creativecommons.org/ns#"
   xmlns:rdf="http://www.w3.org/1999/02/22-rdf-syntax-ns#"
   xmlns:svg="http://www.w3.org/2000/svg"
   xmlns="http://www.w3.org/2000/svg"
   xmlns:sodipodi="http://sodipodi.sourceforge.net/DTD/sodipodi-0.dtd"
   xmlns:inkscape="http://www.inkscape.org/namespaces/inkscape"
   viewBox="0 0 974.77922 155.76586"
   height="155.76585"
   width="974.77924"
   xml:space="preserve"
   id="svg2"
   version="1.1"
   sodipodi:docname="chop-ri-logo.svg"
   inkscape:version="0.92.2 5c3e80d, 2017-08-06"><sodipodi:namedview
     pagecolor="#ffffff"
     bordercolor="#666666"
     borderopacity="1"
     objecttolerance="10"
     gridtolerance="10"
     guidetolerance="10"
     inkscape:pageopacity="0"
     inkscape:pageshadow="2"
     inkscape:window-width="1550"
     inkscape:window-height="973"
     id="namedview59"
     showgrid="false"
     fit-margin-left="36"
     fit-margin-top="0"
     fit-margin-right="5"
     fit-margin-bottom="0"
     inkscape:zoom="0.70710678"
     inkscape:cx="37.248226"
     inkscape:cy="69.381714"
     inkscape:window-x="0"
     inkscape:window-y="1"
     inkscape:window-maximized="0"
     inkscape:current-layer="svg2" /><metadata
     id="metadata8"><rdf:RDF><cc:Work
         rdf:about=""><dc:format>image/svg+xml</dc:format><dc:type
           rdf:resource="http://purl.org/dc/dcmitype/StillImage" /><dc:title></dc:title></cc:Work></rdf:RDF></metadata><defs
     id="defs6" /><g
     id="g989"
     transform="translate(-181.32099,-17.330144)"><path
       inkscape:connector-curvature="0"
       d="m 243.12933,53.659999 c 0.75466,-1.334667 1.62266,-2.321334 3.48133,-2.321334 1.852,0 3.88533,1.568 3.88533,3.710667 0,0.696 -0.064,1.222666 -0.41066,2.148 -2.49067,5.858533 -8.69734,9.22 -15.192,9.22 -9.85734,0 -16.64267,-7.189334 -17.39733,-16.468 -0.23334,-3.076 -0.23334,-6.268 0,-9.22 0.75466,-9.28 7.53999,-16.533333 17.39733,-16.533333 6.49466,0 12.70133,3.364 15.192,9.224 0.34666,0.926667 0.41066,1.450667 0.41066,2.142667 0,2.148 -2.03333,3.714666 -3.88533,3.714666 -1.85867,0 -2.78667,-1.16 -3.48133,-2.318666 -1.68267,-3.192 -4.63867,-5.106667 -8.236,-5.106667 -5.62534,0 -9.10267,4.174667 -9.50934,9.86 -0.17333,2.433333 -0.17333,4.988 0,7.421333 0.40667,5.742667 3.884,9.630666 9.50934,9.630666 3.59733,0 6.55333,-1.912 8.236,-5.103999"
       style="fill:#1f518a;fill-opacity:1;fill-rule:nonzero;stroke:none;stroke-width:0.13333333"
       id="path20" /><path
       inkscape:connector-curvature="0"
       d="m 265.81066,36.549332 c 1.27867,-1.16 4.236,-2.26 7.30667,-2.26 7.36266,0 11.71733,4.409334 11.71733,12.7 v 14.9056 c 0,2.3172 -1.62667,4.119866 -3.948,4.119866 -2.148,0 -3.82533,-1.802666 -3.82533,-4.119866 V 47.398665 c 0,-3.538666 -2.03334,-5.513333 -5.21867,-5.513333 -2.44,0 -4.816,1.104 -6.032,2.438667 v 17.682933 c 0,2.2052 -1.62267,4.007866 -3.83067,4.007866 -2.14666,0 -3.94266,-1.802666 -3.94266,-4.007866 V 28.083999 c 0,-2.265333 1.68533,-4 3.888,-4 2.144,0 3.88533,1.734667 3.88533,4 v 8.465333"
       style="fill:#1f518a;fill-opacity:1;fill-rule:nonzero;stroke:none;stroke-width:0.13333333"
       id="path22" /><path
       inkscape:connector-curvature="0"
       d="m 300.84399,38.465332 v 23.5416 c 0,2.2052 -1.68133,4.006266 -3.884,4.006266 -2.08933,0 -3.88533,-1.801066 -3.88533,-4.006266 v -23.5416 c 0,-2.261333 1.61867,-4.001333 3.88533,-4.001333 2.14267,0 3.884,1.74 3.884,4.001333 m -3.884,-7.193333 c -2.38133,0 -4.11866,-1.970667 -4.11866,-4.230666 0,-2.321334 1.73733,-4.118667 4.11866,-4.118667 2.25734,0 4.11734,1.797333 4.11734,4.118667 0,2.259999 -1.86,4.230666 -4.11734,4.230666"
       style="fill:#1f518a;fill-opacity:1;fill-rule:nonzero;stroke:none;stroke-width:0.13333333"
       id="path24" /><path
       inkscape:connector-curvature="0"
       d="m 317.25999,28.198666 v 33.810399 c 0,2.2052 -1.62666,4.001467 -3.88533,4.001467 -2.09333,0 -3.888,-1.796267 -3.888,-4.001467 V 28.198666 c 0,-2.26 1.68133,-4.057333 3.888,-4.057333 2.144,0 3.88533,1.797333 3.88533,4.057333"
       style="fill:#1f518a;fill-opacity:1;fill-rule:nonzero;stroke:none;stroke-width:0.13333333"
       id="path26" /><path
       inkscape:connector-curvature="0"
       d="m 338.71599,58.762665 c 2.03334,0 4.69867,-0.988 5.62534,-1.796 v -13.688 c -0.98134,-0.637333 -3.536,-1.569333 -6.08667,-1.569333 -3.71067,0 -5.452,2.093333 -5.68533,5.625333 -0.11467,1.338667 -0.11467,4.062667 0,5.630667 0.23333,3.768 2.376,5.797333 6.14666,5.797333 m -1.216,-24.474666 c 2.31734,0 5.10134,0.696 6.84134,1.450667 v -7.654667 c 0,-2.262666 1.74133,-4.001333 3.884,-4.001333 2.204,0 3.88933,1.738667 3.88933,4.001333 v 31.779999 c 0,1.277334 -0.35067,2.0284 -1.39333,2.727867 -1.62267,1.154133 -6.26134,3.592133 -12.17867,3.592133 -8.06133,0 -13.10667,-4.988 -13.74267,-12.062666 -0.17333,-2.026667 -0.17333,-5.910667 0,-8.001333 0.636,-7.189333 5.04534,-11.832 12.7,-11.832"
       style="fill:#1f518a;fill-opacity:1;fill-rule:nonzero;stroke:none;stroke-width:0.13333333"
       id="path28" /><path
       inkscape:connector-curvature="0"
       d="m 378.96932,38.754666 c 0,1.562666 -1.216,3.654666 -3.656,3.654666 -1.33466,0 -2.60533,-0.578667 -4.34666,-0.524 -1.91467,0.06133 -3.02134,1.104 -3.02134,3.772 v 16.4116 c 0,2.204666 -1.676,3.945866 -3.884,3.945866 -2.148,0 -3.88,-1.7412 -3.88,-3.945866 V 44.206665 c 0,-6.031999 3.53734,-9.917333 10.20534,-9.917333 1.91466,0 3.82933,0.174667 4.98133,0.464 2.38533,0.636 3.60133,2.086667 3.60133,4.001334"
       style="fill:#1f518a;fill-opacity:1;fill-rule:nonzero;stroke:none;stroke-width:0.13333333"
       id="path30" /><path
       inkscape:connector-curvature="0"
       d="m 401.29732,47.627999 c 0.408,0 0.64134,-0.233334 0.64134,-0.697334 0.172,-3.537333 -2.03467,-5.913333 -5.8,-5.913333 -4.11734,0 -6.15067,2.609333 -6.15067,6.610667 z m 8.12134,1.390666 c 0,2.265334 -1.16,3.889334 -4.00267,3.889334 h -15.428 v 0.573333 c 0,3.657333 2.788,5.630666 6.676,5.630666 2.084,0 4.22667,-0.522666 6.20133,-1.277333 3.076,-1.161333 5.10534,0.928 5.10534,3.076 0,1.0984 -0.412,2.314533 -1.97467,3.2468 -2.148,1.2724 -5.85867,2.0312 -9.56933,2.0312 -8.00267,0 -13.39467,-5.05 -13.97067,-12.298 -0.17867,-2.261333 -0.12,-5.452 0,-7.249333 0.68933,-7.538666 6.08667,-12.352 13.68267,-12.352 7.888,0 13.28,5.276 13.28,13.454667 v 1.274666"
       style="fill:#1f518a;fill-opacity:1;fill-rule:nonzero;stroke:none;stroke-width:0.13333333"
       id="path32" /><path
       inkscape:connector-curvature="0"
       d="m 443.05866,62.009065 c 0,2.2052 -1.62134,4.001467 -3.88534,4.001467 -2.08266,0 -3.884,-1.796267 -3.884,-4.001467 V 47.339999 c 0,-3.773334 -2.60933,-5.453334 -5.62933,-5.453334 -2.31333,0 -4.58,0.697334 -5.68133,1.390667 v 18.731733 c 0,2.2052 -1.62267,4.001467 -3.884,4.001467 -2.084,0 -3.88934,-1.796267 -3.88934,-4.001467 V 40.319999 c 0,-1.446667 0.41067,-2.144 1.39867,-2.84 1.79467,-1.278667 6.08667,-3.192 12.292,-3.192 8.69867,0 13.16267,4.585333 13.16267,12.704 v 15.017066"
       style="fill:#1f518a;fill-opacity:1;fill-rule:nonzero;stroke:none;stroke-width:0.13333333"
       id="path34" /><path
       inkscape:connector-curvature="0"
       d="m 456.11066,31.099999 c 0,2.144 -0.34267,4.753333 -1.67734,6.957333 -0.81333,1.394667 -2.09333,2.321334 -3.656,2.321334 -1.91466,0 -3.24933,-1.508 -3.24933,-3.076 0,-1.74 1.564,-2.722667 1.564,-5.857334 v -3.358666 c 0,-1.916 1.512,-3.426667 3.48133,-3.426667 1.97467,0 3.53734,1.510667 3.53734,3.426667 v 3.013333"
       style="fill:#1f518a;fill-opacity:1;fill-rule:nonzero;stroke:none;stroke-width:0.13333333"
       id="path36" /><path
       inkscape:connector-curvature="0"
       d="m 482.79066,56.093332 c 0,6.4964 -5.39334,10.090666 -12.12,10.090666 -5.45067,0 -8.93467,-1.563066 -11.07734,-3.363466 -1.39333,-1.156534 -1.796,-3.360534 -0.69466,-4.812534 1.16,-1.566666 3.13066,-1.914666 5.04533,-0.697333 1.796,1.161333 4.172,1.916 6.9,1.916 3.012,0 4.41067,-1.101333 4.41067,-2.669333 0,-1.277334 -0.932,-2.142667 -3.368,-2.728 -2.084,-0.461333 -2.02934,-0.402667 -4.29067,-0.982667 -4.75467,-1.216 -8.464,-3.884 -8.464,-8.872 0,-6.262666 5.044,-9.686666 11.83067,-9.686666 3.652,0 7.42266,0.929333 9.452,2.612 1.68133,1.393333 1.56266,3.769333 0.34666,5.161333 -1.16,1.273333 -3.13066,1.450667 -5.044,0.461333 -1.50933,-0.752 -3.53866,-1.271999 -5.04666,-1.271999 -2.90134,0 -4.11734,1.101333 -4.11734,2.490666 0,1.22 0.868,2.030667 3.47734,2.610667 l 4.11866,0.925333 c 5.80267,1.394667 8.64134,4.237333 8.64134,8.816"
       style="fill:#1f518a;fill-opacity:1;fill-rule:nonzero;stroke:none;stroke-width:0.13333333"
       id="path38" /><path
       inkscape:connector-curvature="0"
       d="m 503.90799,28.605332 c 0,-2.259999 1.79733,-4.057333 3.99866,-4.057333 2.26267,0 3.94934,1.797334 3.94934,4.057333 v 12.818667 h 18.38 V 28.605332 c 0,-2.259999 1.79733,-4.057333 3.944,-4.057333 2.31866,0 3.99866,1.797334 3.99866,4.057333 v 33.2308 c 0,2.259333 -1.68,4.1172 -3.99866,4.1172 -2.14667,0 -3.944,-1.913067 -3.944,-4.1172 V 49.190665 h -18.38 v 12.701733 c 0,2.319734 -1.68667,4.060934 -3.94934,4.060934 -2.20133,0 -3.99866,-1.857867 -3.99866,-4.060934 V 28.605332"
       style="fill:#1f518a;fill-opacity:1;fill-rule:nonzero;stroke:none;stroke-width:0.13333333"
       id="path40" /><path
       inkscape:connector-curvature="0"
       d="m 566.13865,47.337332 c -0.17333,-3.304 -2.49466,-5.625333 -6.14666,-5.625333 -3.652,0 -5.91334,2.321333 -6.20667,5.625333 -0.11467,1.562667 -0.11467,4.292 0,5.798667 0.29333,3.309333 2.55467,5.627999 6.20667,5.627999 3.652,0 5.91866,-2.318666 6.14666,-5.627999 0.11867,-1.506667 0.11867,-4.236 0,-5.798667 m -6.14666,18.851333 c -7.596,0 -13.34,-4.871333 -13.92,-11.774 -0.17467,-2.322666 -0.17467,-5.976 0,-8.293333 0.58,-6.96 6.324,-11.832 13.92,-11.832 7.65466,0 13.28133,4.872 13.86133,11.832 0.17333,2.317333 0.17333,5.913333 0,8.236 -0.58,6.96 -6.20667,11.831333 -13.86133,11.831333"
       style="fill:#1f518a;fill-opacity:1;fill-rule:nonzero;stroke:none;stroke-width:0.13333333"
       id="path42" /><path
       inkscape:connector-curvature="0"
       d="m 604.06932,56.093332 c 0,6.4964 -5.392,10.090666 -12.12,10.090666 -5.45067,0 -8.92933,-1.563066 -11.076,-3.363466 -1.39467,-1.156534 -1.79733,-3.360534 -0.696,-4.812534 1.16133,-1.566666 3.13067,-1.914666 5.04533,-0.697333 1.796,1.161333 4.172,1.916 6.90134,1.916 3.016,0 4.41066,-1.101333 4.41066,-2.669333 0,-1.277334 -0.932,-2.142667 -3.36533,-2.728 -2.088,-0.461333 -2.032,-0.402667 -4.28933,-0.982667 -4.75867,-1.216 -8.46934,-3.884 -8.46934,-8.872 0,-6.262666 5.04534,-9.686666 11.832,-9.686666 3.656,0 7.42267,0.929333 9.45067,2.612 1.68267,1.393333 1.56267,3.769333 0.348,5.161333 -1.16133,1.273333 -3.13067,1.450667 -5.04533,0.461333 -1.508,-0.752 -3.53734,-1.271999 -5.04667,-1.271999 -2.9,0 -4.116,1.101333 -4.116,2.490666 0,1.22 0.872,2.030667 3.47733,2.610667 l 4.11734,0.925333 c 5.804,1.394667 8.64133,4.237333 8.64133,8.816"
       style="fill:#1f518a;fill-opacity:1;fill-rule:nonzero;stroke:none;stroke-width:0.13333333"
       id="path44" /><path
       inkscape:connector-curvature="0"
       d="m 623.79465,41.770665 c -2.088,0 -4.75333,0.986667 -5.74,1.738667 v 13.685333 c 0.92267,0.64 3.41733,1.568 5.85867,1.568 3.884,0 5.62133,-2.032 5.91333,-5.569333 0.11867,-1.390667 0.11867,-4.057333 0,-5.625333 -0.292,-3.768 -2.32267,-5.797334 -6.032,-5.797334 m 0.868,24.413333 c -2.55467,0 -4.46933,-0.464 -6.608,-1.451066 v 8.644799 c 0,2.259467 -1.74133,4.000534 -3.88533,4.000534 -2.20667,0 -3.88533,-1.741067 -3.88533,-4.000534 V 40.029332 c 0,-0.870666 0.22933,-1.450666 0.984,-1.969333 1.74,-1.28 6.54933,-3.772 12.69999,-3.772 8.00134,0 12.988,4.930667 13.628,12.062666 0.17867,2.030667 0.17867,5.86 0,7.946667 -0.58133,7.188 -5.164,11.886666 -12.93333,11.886666"
       style="fill:#1f518a;fill-opacity:1;fill-rule:nonzero;stroke:none;stroke-width:0.13333333"
       id="path46" /><path
       inkscape:connector-curvature="0"
       d="m 653.14265,38.465332 v 23.5416 c 0,2.2052 -1.68133,4.006266 -3.884,4.006266 -2.08933,0 -3.884,-1.801066 -3.884,-4.006266 v -23.5416 c 0,-2.261333 1.61733,-4.001333 3.884,-4.001333 2.14267,0 3.884,1.74 3.884,4.001333 m -3.884,-7.193333 c -2.376,0 -4.11733,-1.970667 -4.11733,-4.230666 0,-2.321334 1.74133,-4.118667 4.11733,-4.118667 2.26133,0 4.11733,1.797333 4.11733,4.118667 0,2.259999 -1.856,4.230666 -4.11733,4.230666"
       style="fill:#1f518a;fill-opacity:1;fill-rule:nonzero;stroke:none;stroke-width:0.13333333"
       id="path48" /><path
       inkscape:connector-curvature="0"
       d="m 671.93598,66.186132 c -7.19466,0 -10.44266,-4.9328 -10.44266,-11.427467 V 31.851999 c 0,-2.26 1.68533,-4.058666 3.884,-4.058666 2.14666,0 3.88933,1.798666 3.88933,4.058666 v 3.944 h 7.24667 c 1.916,0 3.59733,1.450667 3.59733,3.481333 0,1.913334 -1.68133,3.364 -3.59733,3.364 h -7.24667 v 11.944 c 0,2.782666 1.21467,4.290666 3.76533,4.290666 1.28,0 2.55867,-0.346666 3.60134,-0.637333 2.956,-0.696 4.81066,1.161333 4.81066,3.304 0,1.277867 -0.63866,2.612133 -2.43466,3.421067 -2.02934,0.932266 -4.872,1.2224 -7.07334,1.2224"
       style="fill:#1f518a;fill-opacity:1;fill-rule:nonzero;stroke:none;stroke-width:0.13333333"
       id="path50" /><path
       inkscape:connector-curvature="0"
       d="m 703.48665,58.067998 v -5.218666 c -1.97067,-0.581333 -3.59333,-0.932 -5.8,-0.932 -3.13467,0 -5.04933,1.569333 -5.04933,3.772 0,2.549333 2.03333,3.884 5.22266,3.884 3.19067,0 4.99067,-1.098667 5.62667,-1.505334 m 7.48,2.202667 c 0,1.334667 -0.352,2.0316 -1.39333,2.7232 -1.62267,1.103733 -5.79867,3.192267 -12.23867,3.192267 -8.408,0 -12.228,-4.698134 -12.228,-10.207467 0,-4.930666 3.41733,-9.452 11.94133,-9.452 2.55467,0 4.23467,0.346667 6.43867,0.869334 v -1.566667 c 0,-3.014667 -1.45333,-4.52 -5.50667,-4.52 -2.03466,0 -4.11866,0.518667 -5.572,0.982667 -3.30266,1.042666 -5.33333,-0.637333 -5.33333,-3.014667 0,-1.333333 0.58133,-2.728 2.55067,-3.538666 1.62266,-0.697334 4.98533,-1.449334 8.528,-1.449334 8.176,0 12.81333,3.592 12.81333,11.773333 v 14.208"
       style="fill:#1f518a;fill-opacity:1;fill-rule:nonzero;stroke:none;stroke-width:0.13333333"
       id="path52" /><path
       inkscape:connector-curvature="0"
       d="m 726.68798,28.198666 v 33.810399 c 0,2.2052 -1.62266,4.001467 -3.884,4.001467 -2.09333,0 -3.88933,-1.796267 -3.88933,-4.001467 V 28.198666 c 0,-2.26 1.68667,-4.057333 3.88933,-4.057333 2.14267,0 3.884,1.797333 3.884,4.057333"
       style="fill:#1f518a;fill-opacity:1;fill-rule:nonzero;stroke:none;stroke-width:0.13333333"
       id="path54" /><path
       inkscape:connector-curvature="0"
       d="m 237.61733,105.33973 c -0.17334,-3.30307 -2.49467,-5.625465 -6.14534,-5.625465 -3.652,0 -5.91466,2.322395 -6.20666,5.625465 -0.11467,1.56253 -0.11467,4.29173 0,5.79946 0.292,3.30894 2.55466,5.63027 6.20666,5.63027 3.65067,0 5.91734,-2.32133 6.14534,-5.63027 0.11866,-1.50773 0.11866,-4.23693 0,-5.79946 m -6.14534,18.85213 c -7.596,0 -13.33999,-4.87133 -13.92133,-11.7776 -0.17333,-2.32187 -0.17333,-5.97293 0,-8.29173 0.58134,-6.958265 6.32533,-11.829595 13.92133,-11.829595 7.65334,0 13.28,4.87133 13.86,11.829595 0.17334,2.3188 0.17334,5.91506 0,8.23706 -0.58,6.96094 -6.20666,11.83227 -13.86,11.83227"
       style="fill:#1f518a;fill-opacity:1;fill-rule:nonzero;stroke:none;stroke-width:0.13333333"
       id="path56" /><path
       inkscape:connector-curvature="0"
       d="m 254.84666,92.290265 c 0,-7.019334 4.004,-10.787467 10.324,-10.787467 2.088,0 4.46533,0.347333 5.85867,0.7536 1.91466,0.5808 3.016,1.798933 3.016,3.710933 0,1.741733 -1.27867,3.366134 -3.656,3.366134 -1.27467,0 -2.668,-0.51813 -4.46534,-0.51813 -2.088,0 -3.308,1.27186 -3.308,3.7656 v 1.2172 h 6.72667 c 1.91467,0 3.54267,1.45093 3.54267,3.48066 0,1.91454 -1.628,3.365595 -3.54267,3.365595 h -6.72667 v 19.2516 c 0,2.32134 -1.61733,4.1224 -3.88533,4.1224 -2.14267,0 -3.884,-1.80106 -3.884,-4.1224 v -19.2516 h -1.39333 c -2.02534,0 -3.592,-1.451055 -3.592,-3.365595 0,-2.02973 1.56666,-3.48066 3.592,-3.48066 h 1.39333 v -1.50787"
       style="fill:#1f518a;fill-opacity:1;fill-rule:nonzero;stroke:none;stroke-width:0.13333333"
       id="path58" /><path
       inkscape:connector-curvature="0"
       d="m 311.51066,102.72773 c 4.872,0 6.96,-2.31867 6.96,-6.086935 0,-3.82706 -2.20267,-6.0896 -6.78667,-6.0896 h -8.34933 v 12.176535 z m -8.176,7.65786 v 9.45574 c 0,2.2016 -1.8,4.11346 -3.944,4.11346 -2.148,0 -3.99867,-1.91186 -3.99867,-4.11346 V 87.941864 c 0,-2.840133 1.85067,-5.162 5.27467,-5.162 h 11.53867 c 7.65466,0 14.212,5.104667 14.212,13.799471 0,8.760395 -6.20534,13.806255 -14.73334,13.806255 h -8.34933"
       style="fill:#1f518a;fill-opacity:1;fill-rule:nonzero;stroke:none;stroke-width:0.13333333"
       id="path60" /><path
       inkscape:connector-curvature="0"
       d="m 340.33866,94.552795 c 1.27867,-1.16093 4.236,-2.25986 7.30667,-2.25986 7.36666,0 11.71733,4.40773 11.71733,12.699455 v 14.9036 c 0,2.31614 -1.62134,4.1224 -3.944,4.1224 -2.14667,0 -3.82933,-1.80626 -3.82933,-4.1224 v -14.4964 c 0,-3.53746 -2.02934,-5.511455 -5.21867,-5.511455 -2.436,0 -4.812,1.104255 -6.032,2.435995 v 17.68493 c 0,2.20307 -1.62267,4.00933 -3.82533,4.00933 -2.148,0 -3.944,-1.80626 -3.944,-4.00933 V 86.086664 c 0,-2.26 1.68133,-4.0016 3.88933,-4.0016 2.13867,0 3.88,1.7416 3.88,4.0016 v 8.466131"
       style="fill:#1f518a;fill-opacity:1;fill-rule:nonzero;stroke:none;stroke-width:0.13333333"
       id="path62" /><path
       inkscape:connector-curvature="0"
       d="m 375.37199,96.464795 v 23.544265 c 0,2.20307 -1.68133,4.00933 -3.884,4.00933 -2.08933,0 -3.884,-1.80626 -3.884,-4.00933 V 96.464795 c 0,-2.26 1.61733,-4.00053 3.884,-4.00053 2.14267,0 3.884,1.74053 3.884,4.00053 m -3.884,-7.19066 c -2.37733,0 -4.11733,-1.971871 -4.11733,-4.231737 0,-2.319867 1.74,-4.117733 4.11733,-4.117733 2.26267,0 4.11733,1.797866 4.11733,4.117733 0,2.259866 -1.85466,4.231737 -4.11733,4.231737"
       style="fill:#1f518a;fill-opacity:1;fill-rule:nonzero;stroke:none;stroke-width:0.13333333"
       id="path64" /><path
       inkscape:connector-curvature="0"
       d="m 391.78666,86.200664 v 33.813596 c 0,2.20307 -1.62134,3.99893 -3.884,3.99893 -2.09334,0 -3.888,-1.79586 -3.888,-3.99893 V 86.200664 c 0,-2.259866 1.68533,-4.059866 3.888,-4.059866 2.144,0 3.884,1.8 3.884,4.059866"
       style="fill:#1f518a;fill-opacity:1;fill-rule:nonzero;stroke:none;stroke-width:0.13333333"
       id="path66" /><path
       inkscape:connector-curvature="0"
       d="m 417.13332,116.06626 v -5.21453 c -1.96933,-0.5808 -3.596,-0.93227 -5.8,-0.93227 -3.13466,0 -5.04933,1.56773 -5.04933,3.7692 0,2.55107 2.03333,3.88547 5.22267,3.88547 3.19066,0 4.992,-1.0964 5.62666,-1.50787 m 7.48,2.20733 c 0,1.3292 -0.35066,2.02867 -1.392,2.724 -1.62266,1.1 -5.8,3.18907 -12.23866,3.18907 -8.40934,0 -12.23067,-4.69853 -12.23067,-10.20467 0,-4.93493 3.41867,-9.4532 11.94133,-9.4532 2.55467,0 4.23734,0.3448 6.44,0.8708 v -1.5676 c 0,-3.01413 -1.45333,-4.521995 -5.508,-4.521995 -2.032,0 -4.12133,0.51827 -5.56933,0.982935 -3.30533,1.04426 -5.33333,-0.635465 -5.33333,-3.014135 0,-1.33226 0.58,-2.72866 2.54933,-3.53693 1.62133,-0.69747 4.98667,-1.4516 8.528,-1.4516 8.17067,0 12.81333,3.59427 12.81333,11.775065 v 14.20826"
       style="fill:#1f518a;fill-opacity:1;fill-rule:nonzero;stroke:none;stroke-width:0.13333333"
       id="path68" /><path
       inkscape:connector-curvature="0"
       d="m 445.61332,116.76573 c 2.02934,0 4.69867,-0.98854 5.62134,-1.7968 v -13.68907 c -0.98267,-0.638 -3.53734,-1.567725 -6.08667,-1.567725 -3.71067,0 -5.452,2.091195 -5.68667,5.623995 -0.11333,1.33853 -0.11333,4.06253 0,5.63013 0.23467,3.76573 2.37734,5.79947 6.152,5.79947 m -1.22,-24.475465 c 2.31734,0 5.1,0.69693 6.84134,1.4516 v -7.657334 c 0,-2.2604 1.74133,-4.001067 3.888,-4.001067 2.204,0 3.88533,1.740667 3.88533,4.001067 v 31.781199 c 0,1.27613 -0.34667,2.03026 -1.39467,2.724 -1.62133,1.16093 -6.26,3.59693 -12.17333,3.59693 -8.06667,0 -13.11067,-4.986 -13.74667,-12.06413 -0.17466,-2.02494 -0.17466,-5.9104 0,-8.00254 0.636,-7.189055 5.04534,-11.829725 12.7,-11.829725"
       style="fill:#1f518a;fill-opacity:1;fill-rule:nonzero;stroke:none;stroke-width:0.13333333"
       id="path70" /><path
       inkscape:connector-curvature="0"
       d="m 485.51332,105.62773 c 0.412,0 0.64134,-0.23334 0.64134,-0.69427 0.17866,-3.53907 -2.03467,-5.916125 -5.8,-5.916125 -4.11734,0 -6.15067,2.611455 -6.15067,6.610395 z m 8.12133,1.38906 c 0,2.2672 -1.16,3.8948 -3.99866,3.8948 h -15.432 v 0.5756 c 0,3.65094 2.788,5.63014 6.67733,5.63014 2.08267,0 4.22667,-0.53014 6.2,-1.28014 3.076,-1.16 5.10533,0.92334 5.10533,3.07187 0,1.1 -0.41066,2.32133 -1.97333,3.2484 -2.14933,1.27453 -5.86,2.0344 -9.57066,2.0344 -8.00134,0 -13.39467,-5.0552 -13.97067,-12.30267 -0.17733,-2.25773 -0.11867,-5.44786 0,-7.2484 0.69067,-7.537995 6.088,-12.347855 13.68267,-12.347855 7.88799,0 13.27999,5.27333 13.27999,13.453055 v 1.2708"
       style="fill:#1f518a;fill-opacity:1;fill-rule:nonzero;stroke:none;stroke-width:0.13333333"
       id="path72" /><path
       inkscape:connector-curvature="0"
       d="m 508.36932,86.200664 v 33.813596 c 0,2.20307 -1.62267,3.99893 -3.884,3.99893 -2.08933,0 -3.88933,-1.79586 -3.88933,-3.99893 V 86.200664 c 0,-2.259866 1.68533,-4.059866 3.88933,-4.059866 2.14267,0 3.884,1.8 3.884,4.059866"
       style="fill:#1f518a;fill-opacity:1;fill-rule:nonzero;stroke:none;stroke-width:0.13333333"
       id="path74" /><path
       inkscape:connector-curvature="0"
       d="m 530.11732,99.771465 c -2.08267,0 -4.752,0.989065 -5.73867,1.741725 v 13.68494 c 0.92667,0.63906 3.41734,1.5676 5.85734,1.5676 3.88533,0 5.62666,-2.03374 5.91466,-5.57187 0.11867,-1.38907 0.11867,-4.0572 0,-5.6208 -0.288,-3.76973 -2.32133,-5.801595 -6.03333,-5.801595 m 0.87333,24.415195 c -2.55466,0 -4.46933,-0.46147 -6.612,-1.448 v 8.6412 c 0,2.26146 -1.74266,3.99893 -3.88533,3.99893 -2.20267,0 -3.884,-1.73747 -3.884,-3.99893 V 98.032395 c 0,-0.8728 0.228,-1.45093 0.98267,-1.97186 1.74133,-1.2776 6.55333,-3.77294 12.69866,-3.77294 8.00267,0 12.99334,4.93387 13.62934,12.065195 0.17333,2.03387 0.17333,5.85934 0,7.94787 -0.58134,7.18747 -5.16,11.886 -12.92934,11.886"
       style="fill:#1f518a;fill-opacity:1;fill-rule:nonzero;stroke:none;stroke-width:0.13333333"
       id="path76" /><path
       inkscape:connector-curvature="0"
       d="m 559.17865,94.552795 c 1.27867,-1.16093 4.236,-2.25986 7.308,-2.25986 7.36134,0 11.71734,4.40773 11.71734,12.699455 v 14.9036 c 0,2.31614 -1.628,4.1224 -3.948,4.1224 -2.148,0 -3.82534,-1.80626 -3.82534,-4.1224 v -14.4964 c 0,-3.53746 -2.03466,-5.511455 -5.21866,-5.511455 -2.44134,0 -4.81867,1.104255 -6.03334,2.435995 v 17.68493 c 0,2.20307 -1.62266,4.00933 -3.82933,4.00933 -2.148,0 -3.94533,-1.80626 -3.94533,-4.00933 V 86.086664 c 0,-2.26 1.688,-4.0016 3.88933,-4.0016 2.14533,0 3.88533,1.7416 3.88533,4.0016 v 8.466131"
       style="fill:#1f518a;fill-opacity:1;fill-rule:nonzero;stroke:none;stroke-width:0.13333333"
       id="path78" /><path
       inkscape:connector-curvature="0"
       d="m 594.21332,96.464795 v 23.544265 c 0,2.20307 -1.68267,4.00933 -3.88533,4.00933 -2.08934,0 -3.884,-1.80626 -3.884,-4.00933 V 96.464795 c 0,-2.26 1.616,-4.00053 3.884,-4.00053 2.144,0 3.88533,1.74053 3.88533,4.00053 m -3.88533,-7.19066 c -2.38134,0 -4.11734,-1.971871 -4.11734,-4.231737 0,-2.319867 1.736,-4.117733 4.11734,-4.117733 2.25733,0 4.11733,1.797866 4.11733,4.117733 0,2.259866 -1.86,4.231737 -4.11733,4.231737"
       style="fill:#1f518a;fill-opacity:1;fill-rule:nonzero;stroke:none;stroke-width:0.13333333"
       id="path80" /><path
       inkscape:connector-curvature="0"
       d="m 619.79065,116.06626 v -5.21453 c -1.97333,-0.5808 -3.596,-0.93227 -5.79866,-0.93227 -3.136,0 -5.04934,1.56773 -5.04934,3.7692 0,2.55107 2.028,3.88547 5.22267,3.88547 3.18533,0 4.98667,-1.0964 5.62533,-1.50787 m 7.48133,2.20733 c 0,1.3292 -0.352,2.02867 -1.39333,2.724 -1.628,1.1 -5.8,3.18907 -12.23866,3.18907 -8.40934,0 -12.23467,-4.69853 -12.23467,-10.20467 0,-4.93493 3.424,-9.4532 11.94133,-9.4532 2.56,0 4.23734,0.3448 6.444,0.8708 v -1.5676 c 0,-3.01413 -1.45333,-4.521995 -5.512,-4.521995 -2.028,0 -4.116,0.51827 -5.56533,0.982935 -3.304,1.04426 -5.33733,-0.635465 -5.33733,-3.014135 0,-1.33226 0.58,-2.72866 2.54933,-3.53693 1.628,-0.69747 4.99067,-1.4516 8.528,-1.4516 8.17466,0 12.81866,3.59427 12.81866,11.775065 v 14.20826"
       style="fill:#1f518a;fill-opacity:1;fill-rule:nonzero;stroke:none;stroke-width:0.13333333"
       id="path82" /></g><path
     id="path84"
     style="fill:#5db9e8;fill-opacity:1;fill-rule:nonzero;stroke:none;stroke-width:0.13333333"
     d="m 51.460329,137.84452 c 4.164,0 5.61466,-1.824 5.61466,-4.68027 0,-2.99427 -1.73066,-4.72493 -5.38133,-4.72493 h -7.01867 v 9.4052 z m -6.78534,5.89581 v 8.37604 c 0,1.77864 -1.45066,3.32292 -3.18133,3.32292 -1.732,0 -3.22933,-1.54428 -3.22933,-3.32292 v -25.78225 c 0,-2.29374 1.49733,-4.1656 4.25866,-4.1656 h 9.592 c 6.13067,0 11.41867,3.88373 11.41867,10.90413 0,5.3796 -2.76133,8.65573 -6.084,9.68539 l 6.036,7.25312 c 1.124,1.16928 1.07733,3.32136 -0.14,4.49219 -1.404,1.30938 -3.416,1.2625 -4.632,0 l -7.44133,-9.26562 c -0.748,-0.93439 -1.30934,-1.4974 -2.62,-1.4974 h -3.97734"
     inkscape:connector-curvature="0" /><path
     id="path86"
     style="fill:#5db9e8;fill-opacity:1;fill-rule:nonzero;stroke:none;stroke-width:0.13333333"
     d="m 91.418989,122.16852 c 1.732,0 3.08934,1.30933 3.08934,3.04106 0,1.63907 -1.45067,3.0896 -3.08934,3.0896 h -13.66266 v 7.3932 h 13.10133 c 1.592,0 2.90133,1.21614 2.90133,2.9 0,1.54534 -1.35733,2.948 -2.90133,2.948 h -13.10133 v 7.53484 h 13.756 c 1.63866,0 3.08933,1.45052 3.08933,3.04115 0,1.73229 -1.35733,3.08802 -3.08933,3.08802 h -15.53467 c -2.99467,0 -4.632,-2.10521 -4.632,-4.63177 v -23.81877 c 0,-2.48013 1.63733,-4.58533 4.632,-4.58533 h 15.44133"
     inkscape:connector-curvature="0" /><path
     id="path88"
     style="fill:#5db9e8;fill-opacity:1;fill-rule:nonzero;stroke:none;stroke-width:0.13333333"
     d="m 112.66166,141.68198 c -7.72133,-1.59213 -11.23067,-4.44533 -11.23067,-10.1068 0,-5.9896 5.1,-9.8744 11.932,-9.8744 4.492,0 8.28267,1.02907 10.20134,2.66667 0.70133,0.60773 1.12266,1.3572 1.12266,2.3864 0,1.77867 -1.356,3.1828 -3.04133,3.1828 -0.796,0 -1.59067,-0.28173 -2.34,-0.65467 -1.45067,-0.7016 -3.46133,-1.31093 -5.80133,-1.31093 -4.072,0 -5.66267,1.63747 -5.66267,3.60413 0,2.15214 1.872,2.9948 6.644,3.8828 8.28267,1.54387 11.93332,4.1652 11.93332,10.15475 0,5.75468 -4.58533,10.15312 -12.54132,10.15312 -5.61467,0 -9.17067,-1.54427 -11.51067,-3.32136 -1.02933,-0.79583 -1.732,-1.82552 -1.732,-2.90156 0,-1.87187 1.45067,-3.27552 3.22934,-3.27552 0.65466,0 1.404,0.14115 2.38666,0.88907 1.872,1.35729 4.492,2.3401 7.86134,2.3401 3.60265,0 5.84932,-1.35729 5.84932,-3.65052 0,-2.52709 -2.62,-3.22813 -7.29999,-4.16408"
     inkscape:connector-curvature="0" /><path
     id="path90"
     style="fill:#5db9e8;fill-opacity:1;fill-rule:nonzero;stroke:none;stroke-width:0.13333333"
     d="m 153.41632,122.16852 c 1.732,0 3.088,1.30933 3.088,3.04106 0,1.63907 -1.45067,3.0896 -3.088,3.0896 h -13.664 v 7.3932 h 13.10266 c 1.59067,0 2.90134,1.21614 2.90134,2.9 0,1.54534 -1.35734,2.948 -2.90134,2.948 h -13.10266 v 7.53484 h 13.75733 c 1.63867,0 3.088,1.45052 3.088,3.04115 0,1.73229 -1.356,3.08802 -3.088,3.08802 h -15.53467 c -2.99466,0 -4.63333,-2.10521 -4.63333,-4.63177 v -23.81877 c 0,-2.48013 1.63867,-4.58533 4.63333,-4.58533 h 15.44134"
     inkscape:connector-curvature="0" /><path
     id="path92"
     style="fill:#5db9e8;fill-opacity:1;fill-rule:nonzero;stroke:none;stroke-width:0.13333333"
     d="m 172.03765,140.04292 h 9.172 l -3.79067,-11.18227 c -0.0933,-0.32813 -0.37467,-0.6084 -0.748,-0.6084 -0.42133,0 -0.70267,0.28027 -0.796,0.6084 z m 11.13733,5.71096 h -13.056 l -2.57333,7.53333 c -0.65467,1.63593 -2.52667,2.47864 -4.16533,1.82395 -1.63734,-0.60781 -2.33867,-2.57343 -1.77734,-4.16406 l 8.89067,-24.70672 c 1.12267,-3.08906 3.46266,-4.5396 6.17733,-4.5396 2.76,0 5.1,1.45054 6.22267,4.5396 l 8.79733,24.70672 c 0.56133,1.54427 -0.18667,3.50938 -1.77867,4.11719 -1.63733,0.65468 -3.60266,-0.14115 -4.164,-1.77708 l -2.57333,-7.53333"
     inkscape:connector-curvature="0" /><path
     id="path94"
     style="fill:#5db9e8;fill-opacity:1;fill-rule:nonzero;stroke:none;stroke-width:0.13333333"
     d="m 211.06165,137.84452 c 4.164,0 5.61466,-1.824 5.61466,-4.68027 0,-2.99427 -1.73066,-4.72493 -5.38133,-4.72493 h -7.01867 v 9.4052 z m -6.78534,5.89581 v 8.37604 c 0,1.77864 -1.45066,3.32292 -3.18266,3.32292 -1.73067,0 -3.228,-1.54428 -3.228,-3.32292 v -25.78225 c 0,-2.29374 1.49733,-4.1656 4.25733,-4.1656 h 9.59333 c 6.12935,0 11.41734,3.88373 11.41734,10.90413 0,5.3796 -2.76133,8.65573 -6.08267,9.68539 l 6.036,7.25312 c 1.12267,1.16928 1.076,3.32136 -0.14,4.49219 -1.40399,1.30938 -3.41599,1.2625 -4.63333,0 l -7.43999,-9.26562 c -0.74934,-0.93439 -1.30934,-1.4974 -2.62001,-1.4974 h -3.97734"
     inkscape:connector-curvature="0" /><path
     id="path96"
     style="fill:#5db9e8;fill-opacity:1;fill-rule:nonzero;stroke:none;stroke-width:0.13333333"
     d="m 250.59898,145.47262 c 0.608,-1.07761 1.30933,-1.87188 2.80667,-1.87188 1.49733,0 3.136,1.26355 3.136,2.99427 0,0.56147 -0.0467,0.98281 -0.32799,1.73073 -2.01201,4.72656 -7.01868,7.44011 -12.25868,7.44011 -7.956,0 -13.43067,-5.80156 -14.03867,-13.28959 -0.18666,-2.47974 -0.18666,-5.05308 0,-7.43961 0.608,-7.48693 6.08267,-13.33587 14.03867,-13.33587 5.24,0 10.24667,2.71454 12.25868,7.44107 0.28132,0.748 0.32799,1.16773 0.32799,1.7292 0,1.73227 -1.63867,2.9948 -3.136,2.9948 -1.49734,0 -2.24534,-0.93493 -2.80667,-1.8708 -1.35733,-2.57453 -3.744,-4.1188 -6.644,-4.1188 -4.54,0 -7.34667,3.3708 -7.67467,7.95627 -0.14133,1.96506 -0.14133,4.024 0,5.98906 0.328,4.63334 3.13467,7.76823 7.67467,7.76823 2.9,0 5.28667,-1.54375 6.644,-4.11719"
     inkscape:connector-curvature="0" /><path
     id="path98"
     style="fill:#5db9e8;fill-opacity:1;fill-rule:nonzero;stroke:none;stroke-width:0.13333333"
     d="m 263.60566,125.25652 c 0,-1.8256 1.45066,-3.27614 3.22933,-3.27614 1.824,0 3.18,1.45054 3.18,3.27614 v 10.34106 h 14.83467 v -10.34106 c 0,-1.8256 1.45066,-3.27614 3.18133,-3.27614 1.872,0 3.22933,1.45054 3.22933,3.27614 v 26.81349 c 0,1.825 -1.35733,3.3224 -3.22933,3.3224 -1.73067,0 -3.18133,-1.54375 -3.18133,-3.3224 v -10.20149 h -14.83467 v 10.24785 c 0,1.87188 -1.356,3.27604 -3.18,3.27604 -1.77867,0 -3.22933,-1.4974 -3.22933,-3.27604 v -26.85985"
     inkscape:connector-curvature="0" /><path
     id="path100"
     style="fill:#5db9e8;fill-opacity:1;fill-rule:nonzero;stroke:none;stroke-width:0.13333333"
     d="m 314.84032,125.25652 c 0,-1.8256 1.49732,-3.27614 3.228,-3.27614 1.82533,0 3.18133,1.45054 3.18133,3.27614 v 26.81349 c 0,1.825 -1.356,3.3224 -3.18133,3.3224 -1.77867,0 -3.228,-1.4974 -3.228,-3.3224 v -26.81349"
     inkscape:connector-curvature="0" /><path
     id="path102"
     style="fill:#5db9e8;fill-opacity:1;fill-rule:nonzero;stroke:none;stroke-width:0.13333333"
     d="m 352.17898,146.40856 h 0.0947 c -0.0947,-3.08959 -0.14132,-4.63338 -0.14132,-7.39324 v -13.7588 c 0,-1.8256 1.40532,-3.27614 3.18266,-3.27614 1.82533,0 3.18266,1.45054 3.18266,3.27614 v 25.2213 c 0,2.66824 -1.82533,4.91459 -4.63333,4.91459 -1.732,0 -3.46267,-0.74948 -4.68,-2.85468 l -12.82,-22.04015 h -0.0933 c 0.0933,2.48027 0.0933,5.52294 0.0933,7.86147 v 13.8042 c 0,1.825 -1.31067,3.32239 -3.13466,3.32239 -1.73201,0 -3.22933,-1.54375 -3.22933,-3.32239 v -24.75367 c 0,-3.04213 1.96399,-5.3344 5.1,-5.3344 1.63733,0 3.36933,0.65467 4.58533,2.76147 l 12.49334,21.57191"
     inkscape:connector-curvature="0" /><path
     id="path104"
     style="fill:#5db9e8;fill-opacity:1;fill-rule:nonzero;stroke:none;stroke-width:0.13333333"
     d="m 377.77499,141.68198 c -7.72134,-1.59213 -11.23067,-4.44533 -11.23067,-10.1068 0,-5.9896 5.1,-9.8744 11.932,-9.8744 4.492,0 8.28267,1.02907 10.20133,2.66667 0.70267,0.60773 1.12267,1.3572 1.12267,2.3864 0,1.77867 -1.356,3.1828 -3.04133,3.1828 -0.796,0 -1.59067,-0.28173 -2.34,-0.65467 -1.45067,-0.7016 -3.46267,-1.31093 -5.80134,-1.31093 -4.072,0 -5.66133,1.63747 -5.66133,3.60413 0,2.15214 1.87067,2.9948 6.644,3.8828 8.28267,1.54387 11.932,4.1652 11.932,10.15475 0,5.75468 -4.58533,10.15312 -12.54133,10.15312 -5.61467,0 -9.17067,-1.54427 -11.51067,-3.32136 -1.02933,-0.79583 -1.732,-1.82552 -1.732,-2.90156 0,-1.87187 1.45067,-3.27552 3.22933,-3.27552 0.65467,0 1.404,0.14115 2.38667,0.88907 1.87067,1.35729 4.492,2.3401 7.86133,2.3401 3.60267,0 5.848,-1.35729 5.848,-3.65052 0,-2.52709 -2.61866,-3.22813 -7.29866,-4.16408"
     inkscape:connector-curvature="0" /><path
     id="path106"
     style="fill:#5db9e8;fill-opacity:1;fill-rule:nonzero;stroke:none;stroke-width:0.13333333"
     d="m 405.09899,128.43932 h -7.48667 c -1.82533,0 -3.276,-1.40414 -3.276,-3.13494 0,-1.82653 1.45067,-3.13586 3.276,-3.13586 h 21.384 c 1.82533,0 3.276,1.30933 3.276,3.13586 0,1.7308 -1.544,3.13494 -3.276,3.13494 h -7.48667 v 23.67705 c 0,1.82552 -1.35733,3.27604 -3.13466,3.27604 -1.77867,0 -3.276,-1.4974 -3.276,-3.27604 v -23.67705"
     inkscape:connector-curvature="0" /><path
     id="path108"
     style="fill:#5db9e8;fill-opacity:1;fill-rule:nonzero;stroke:none;stroke-width:0.13333333"
     d="m 427.88564,125.25652 c 0,-1.8256 1.49735,-3.27614 3.22934,-3.27614 1.824,0 3.18133,1.45054 3.18133,3.27614 v 26.81349 c 0,1.825 -1.35733,3.3224 -3.18133,3.3224 -1.77866,0 -3.22934,-1.4974 -3.22934,-3.3224 v -26.81349"
     inkscape:connector-curvature="0" /><path
     id="path110"
     style="fill:#5db9e8;fill-opacity:1;fill-rule:nonzero;stroke:none;stroke-width:0.13333333"
     d="m 450.62432,128.43932 h -7.48667 c -1.82534,0 -3.27601,-1.40414 -3.27601,-3.13494 0,-1.82653 1.45067,-3.13586 3.27601,-3.13586 h 21.384 c 1.82533,0 3.276,1.30933 3.276,3.13586 0,1.7308 -1.544,3.13494 -3.276,3.13494 h -7.48667 v 23.67705 c 0,1.82552 -1.356,3.27604 -3.13333,3.27604 -1.77867,0 -3.27733,-1.4974 -3.27733,-3.27604 v -23.67705"
     inkscape:connector-curvature="0" /><path
     id="path112"
     style="fill:#5db9e8;fill-opacity:1;fill-rule:nonzero;stroke:none;stroke-width:0.13333333"
     d="m 501.34697,141.12052 c 0,8.70262 -6.08266,14.64533 -14.17733,14.64533 -8.04933,0 -14.08667,-5.94271 -14.08667,-14.64533 v -15.864 c 0,-1.8256 1.49734,-3.27614 3.22934,-3.27614 1.872,0 3.18266,1.45054 3.18266,3.27614 v 16.09733 c 0,5.10107 3.276,8.23596 7.72134,8.23596 4.44533,0 7.72,-3.13489 7.72,-8.23596 v -16.09733 c 0,-1.8256 1.404,-3.27614 3.18266,-3.27614 1.872,0 3.228,1.45054 3.228,3.27614 v 15.864"
     inkscape:connector-curvature="0" /><path
     id="path114"
     style="fill:#5db9e8;fill-opacity:1;fill-rule:nonzero;stroke:none;stroke-width:0.13333333"
     d="m 517.34697,128.43932 h -7.48665 c -1.82534,0 -3.27601,-1.40414 -3.27601,-3.13494 0,-1.82653 1.45067,-3.13586 3.27601,-3.13586 h 21.384 c 1.82533,0 3.27599,1.30933 3.27599,3.13586 0,1.7308 -1.544,3.13494 -3.27599,3.13494 h -7.48667 v 23.67705 c 0,1.82552 -1.356,3.27604 -3.13468,3.27604 -1.77733,0 -3.276,-1.4974 -3.276,-3.27604 v -23.67705"
     inkscape:connector-curvature="0" /><path
     id="path116"
     style="fill:#5db9e8;fill-opacity:1;fill-rule:nonzero;stroke:none;stroke-width:0.13333333"
     d="m 560.20831,122.16852 c 1.732,0 3.088,1.30933 3.088,3.04106 0,1.63907 -1.45067,3.0896 -3.088,3.0896 h -13.664 v 7.3932 h 13.10266 c 1.59068,0 2.90134,1.21614 2.90134,2.9 0,1.54534 -1.35734,2.948 -2.90134,2.948 h -13.10266 v 7.53484 h 13.75733 c 1.63868,0 3.08934,1.45052 3.08934,3.04115 0,1.73229 -1.35734,3.08802 -3.08934,3.08802 h -15.53467 c -2.99465,0 -4.63333,-2.10521 -4.63333,-4.63177 v -23.81877 c 0,-2.48013 1.63868,-4.58533 4.63333,-4.58533 h 15.44134"
     inkscape:connector-curvature="0" /><path
     style="fill:none;stroke:#1f518a;stroke-width:5;stroke-linecap:round;stroke-linejoin:miter;stroke-miterlimit:4;stroke-dasharray:none;stroke-opacity:1"
     d="M 580.93101,2.5356062 V 147.36167"
     id="path870"
     inkscape:connector-curvature="0"
     sodipodi:nodetypes="cc" /><path
     style="fill:#000000"
     d=""
     id="path881"
     inkscape:connector-curvature="0" /><g
     id="g1701"
     transform="matrix(0.64756933,0,0,0.64756933,311.34438,-501.71095)"
     style="fill:#1f518a;fill-opacity:1"><g
       transform="translate(0,-24)"
       id="g1663"
       style="fill:#1f518a;fill-opacity:1"><path
         inkscape:connector-curvature="0"
         style="fill:#1f518a;fill-opacity:1;stroke-width:0.35564941"
         d="m 465.86188,1038.1467 c -4.47538,-0.7491 -8.70962,-3.214 -10.93468,-6.3655 -2.84346,-4.0274 -3.29129,-6.5105 -3.29129,-18.2494 0,-12.5281 0.62568,-15.27168 4.45386,-19.52955 1.90833,-2.12254 5.45114,-4.00154 8.88299,-4.71133 2.95321,-0.61082 9.0982,-0.53219 11.99605,0.15338 3.50427,0.82912 6.76984,2.41472 7.71935,3.74819 2.44807,3.43802 0.22761,7.85681 -3.94807,7.85681 -0.86654,0 -2.9282,-0.477 -4.58146,-1.05993 -4.96759,-1.75166 -9.40103,-1.33149 -11.69552,1.10833 -1.87501,1.9938 -1.97725,2.6437 -1.97862,12.5772 -10e-4,8.9842 0.0224,9.2949 0.83309,10.9412 1.24581,2.5298 3.21433,3.5634 7.14293,3.7502 1.6804,0.08 3.72599,-0.038 4.55935,-0.2629 l 1.51151,-0.4078 v -4.0255 -4.0254 l -2.89801,-0.1986 c -3.26276,-0.2237 -4.3587,-0.7897 -5.37029,-2.7735 -1.21391,-2.3807 -0.49057,-5.4615 1.57847,-6.7229 1.06281,-0.6481 1.78585,-0.7179 7.43745,-0.7192 5.90772,0 6.32637,0.044 7.43593,0.7989 2.63958,1.7965 2.65094,1.8432 2.77819,11.406 0.0629,4.7296 0.0121,9.2862 -0.11295,10.1258 -0.46052,3.0916 -3.18919,4.9107 -9.23877,6.1593 -2.99907,0.619 -9.73194,0.8527 -12.27951,0.4262 z"
         id="path1547" /><path
         inkscape:connector-curvature="0"
         style="fill:#1f518a;fill-opacity:1;stroke-width:0.35564941"
         d="m 508.49484,1001.5067 c -0.88032,0.011 -1.78171,0.083 -2.69967,0.2199 -6.03919,0.8982 -10.04772,4.1778 -11.71768,9.5879 -0.92105,2.984 -0.91819,14.2885 0.004,17.2858 1.47189,4.7831 5.05543,8.2517 9.74007,9.4254 2.02787,0.5081 9.85504,0.2053 12.794,-0.4949 3.31799,-0.7906 4.76073,-1.7704 5.42747,-3.6843 0.45958,-1.3193 0.45958,-1.6805 0,-2.9998 -0.63082,-1.8108 -2.38857,-3.1237 -4.18235,-3.1237 -0.68351,0 -2.34506,0.328 -3.69264,0.7294 -3.155,0.9396 -6.81971,1.0253 -8.41264,0.1958 -1.08815,-0.5666 -2.5203,-2.8279 -2.54233,-4.0135 -0.006,-0.3091 2.18805,-0.4508 8.26051,-0.5335 9.18059,-0.125 9.91723,-0.29 11.32903,-2.5309 0.6402,-1.0161 0.70278,-1.5967 0.57932,-5.4056 -0.12508,-3.8593 -0.24288,-4.4965 -1.23678,-6.6538 -2.36961,-5.1433 -7.48826,-8.0816 -13.65048,-8.0042 z m -0.30529,9.1253 c 0.85935,-0.014 1.7684,0.1567 2.66528,0.5314 1.32974,0.5556 2.66107,2.389 2.66321,3.6677 10e-4,0.7932 -0.0454,0.8002 -5.15657,0.8002 -3.8926,0 -5.15416,-0.1094 -5.14823,-0.445 0.004,-0.2444 0.31849,-1.1305 0.69914,-1.9692 0.73806,-1.6262 2.38659,-2.554 4.27717,-2.5851 z"
         id="path1545" /><path
         inkscape:connector-curvature="0"
         style="fill:#1f518a;fill-opacity:1;stroke-width:0.35564941"
         d="m 532.4745,1037.6956 c -2.23619,-1.3635 -2.24007,-1.3922 -2.24007,-16.5749 0,-13.3469 0.0221,-13.7901 0.75322,-15.0909 0.94168,-1.6755 2.65683,-2.6533 6.23401,-3.554 5.84371,-1.4714 12.77776,-1.2555 16.71608,0.5204 1.00698,0.4541 2.5037,1.4985 3.32604,2.3209 3.34065,3.3406 4.02528,7.0728 3.84915,20.9833 -0.10392,8.2076 -0.17896,9.1637 -0.79003,10.0653 -0.93924,1.3857 -2.35666,2.0268 -4.48171,2.0268 -2.12505,0 -3.54247,-0.6411 -4.48172,-2.0268 -0.61536,-0.9079 -0.69096,-1.9476 -0.85302,-11.7296 -0.1688,-10.1884 -0.21564,-10.7843 -0.92244,-11.7364 -1.05076,-1.4155 -2.71388,-1.9267 -5.45232,-1.6759 -1.25663,0.1151 -2.48712,0.2869 -2.73443,0.3818 -0.34654,0.133 -0.47504,2.8365 -0.5604,11.7904 -0.10143,10.6384 -0.1673,11.7112 -0.78136,12.7255 -0.36883,0.6091 -1.11372,1.3693 -1.6553,1.6893 -1.39081,0.8216 -4.48808,0.7613 -5.9257,-0.1152 z"
         id="path1541" /><path
         inkscape:connector-curvature="0"
         style="fill:#1f518a;fill-opacity:1;stroke-width:0.35564941"
         d="m 583.45732,1001.4786 c -4.65674,-0.01 -9.01265,1.403 -11.60514,3.875 -3.45758,3.2968 -4.26571,6.0525 -4.26571,14.5455 0,8.2438 0.7086,10.963 3.68535,14.1453 1.69808,1.8155 3.88458,3.0891 6.57986,3.8323 2.16834,0.5978 8.60642,0.6104 11.06542,0.022 5.78571,-1.3847 9.2965,-5.3896 10.32251,-11.776 0.46311,-2.8828 0.43611,-9.7213 -0.049,-12.5961 -1.15374,-6.8374 -5.31382,-10.7754 -12.47933,-11.8114 -1.08867,-0.1574 -2.17935,-0.2347 -3.25399,-0.2365 z m 0.26883,9.7182 c 1.18186,0.018 2.31368,0.2649 2.94973,0.7314 1.8923,1.3879 2.23965,2.6527 2.24018,8.1543 5.3e-4,5.691 -0.40885,7.0039 -2.51942,8.0844 -1.64627,0.8428 -4.46313,0.8079 -5.90781,-0.073 -2.20267,-1.343 -2.41939,-2.0615 -2.41939,-8.0021 0,-6.0224 0.33132,-7.158 2.40689,-8.2595 0.8362,-0.4437 2.06795,-0.6538 3.24982,-0.6355 z"
         id="path1539" /><path
         inkscape:connector-curvature="0"
         style="fill:#1f518a;fill-opacity:1;stroke-width:0.35564941"
         d="m 608.98176,1038.0479 c -1.39716,-0.5652 -2.57334,-2.388 -2.8159,-4.3641 -0.12631,-1.029 -0.17804,-7.3923 -0.11497,-14.1407 0.10865,-11.6243 0.15313,-12.3354 0.84521,-13.5135 1.06276,-1.8091 2.61447,-2.6923 6.30679,-3.5897 2.43947,-0.5929 4.41223,-0.8039 7.72214,-0.8262 4.09166,-0.027 4.63383,0.049 6.80966,0.9574 l 2.36404,0.9873 2.79287,-0.961 c 3.57566,-1.2304 9.01842,-1.3878 12.43184,-0.3594 3.85542,1.1614 6.81294,4.0081 8.18733,7.8803 0.90085,2.5381 1.19631,23.5448 0.35932,25.548 -1.46911,3.5161 -7.76524,3.7377 -9.49632,0.3343 -0.38556,-0.7581 -0.54397,-3.4638 -0.68345,-11.6733 -0.2044,-12.031 -0.24646,-12.2265 -2.79488,-12.99 -1.11808,-0.335 -1.74247,-0.303 -3.3801,0.173 l -2.00869,0.584 v 11.2044 c 0,12.4371 -0.10036,13.0924 -2.2014,14.3734 -1.58647,0.9672 -4.59194,0.976 -6.14222,0.018 -2.06494,-1.2762 -2.12495,-1.6311 -2.32286,-13.7365 -0.13842,-8.4666 -0.29175,-11.1938 -0.65383,-11.6293 -0.75168,-0.9042 -2.78926,-1.4134 -4.62167,-1.155 -3.21662,0.4537 -2.90744,-0.8384 -2.90744,12.1499 0,12.7646 -0.0424,13.0365 -2.24007,14.3766 -1.1992,0.7311 -4.04317,0.9155 -5.4354,0.3523 z"
         id="path1535" /><path
         inkscape:connector-curvature="0"
         style="fill:#1f518a;fill-opacity:1;stroke-width:0.35564941"
         d="m 664.06478,1037.6956 c -2.25122,-1.3727 -2.24007,-1.2849 -2.24007,-17.6366 0,-16.8978 -0.0403,-16.632 2.72478,-17.9706 2.0369,-0.986 4.24184,-0.7952 5.96087,0.516 1.90406,1.4523 2.03841,2.7578 1.91425,18.5996 -0.10025,12.7906 -0.15774,13.8915 -0.77883,14.9175 -0.36883,0.6091 -1.11371,1.3693 -1.6553,1.6893 -1.3908,0.8216 -4.48808,0.7613 -5.9257,-0.1152 z"
         id="path1533" /><path
         inkscape:connector-curvature="0"
         style="fill:#1f518a;fill-opacity:1;stroke-width:0.35564941"
         d="m 689.03189,1037.8938 c -5.00048,-1.5856 -7.81489,-4.4003 -9.2853,-9.2862 -0.82816,-2.7518 -0.94516,-13.4965 -0.18004,-16.5332 1.40465,-5.5749 4.94222,-8.9446 10.6635,-10.1573 3.05192,-0.6468 5.15295,-0.639 8.39833,0.032 4.96858,1.0263 8.31234,3.1918 8.40149,5.4409 0.12028,3.0346 -0.26453,4.0444 -1.92754,5.0585 -1.57679,0.9614 -3.47481,0.8601 -7.00138,-0.3734 -3.44668,-1.2056 -4.15665,-1.2715 -5.89103,-0.5469 -2.05674,0.8594 -2.62776,2.6351 -2.63476,8.1933 -0.003,2.5429 0.158,5.2134 0.35824,5.9343 0.85174,3.0667 4.05049,3.9708 8.08935,2.2865 2.84222,-1.1853 4.06755,-1.388 5.71286,-0.9449 2.12199,0.5714 3.2569,2.105 3.25524,4.3989 -5.3e-4,1.1837 -0.24382,2.2376 -0.68121,2.9549 -0.78133,1.2814 -3.42594,2.6841 -6.59408,3.4976 -2.56377,0.6584 -8.66916,0.6845 -10.68367,0.045 z"
         id="path1531" /><path
         inkscape:connector-curvature="0"
         style="fill:#1f518a;fill-opacity:1;stroke-width:0.35564941"
         d="m 731.83125,1037.8506 c -0.52004,-0.2825 -1.28024,-1.0551 -1.68933,-1.7171 -0.73292,-1.1859 -0.74382,-1.5147 -0.74382,-22.4468 0,-23.39786 -0.0497,-22.84939 2.19161,-24.17337 1.40663,-0.83094 4.35888,-0.86514 5.89971,-0.0683 1.13573,0.5873 1.98138,1.79952 11.26563,16.14837 l 3.28524,5.0775 6.43215,-9.8788 c 3.53768,-5.43319 6.82991,-10.25211 7.31612,-10.70855 2.28007,-2.14062 6.88742,-1.53043 8.32646,1.10269 0.58101,1.06316 0.62838,2.75971 0.62838,22.50436 0,23.7613 0.13481,22.4229 -2.41994,24.027 -1.65361,1.0383 -5.18345,0.8165 -6.49249,-0.408 -1.7331,-1.6213 -1.74798,-1.725 -1.93486,-13.4916 l -0.17786,-11.1959 -3.45104,5.3343 c -1.89805,2.9338 -3.9491,5.8114 -4.5579,6.3946 -1.02251,0.9797 -1.3053,1.0604 -3.71351,1.0604 -2.10029,0 -2.76356,-0.1381 -3.41445,-0.7113 -0.44428,-0.3912 -2.53528,-3.3341 -4.64661,-6.5397 l -3.83882,-5.8285 -0.10308,11.5189 c -0.0974,10.8779 -0.14266,11.5716 -0.81438,12.4668 -0.39122,0.5214 -1.1361,1.2016 -1.6553,1.5115 -1.18165,0.7054 -4.41037,0.7175 -5.69191,0.021 z"
         id="path1529" /><path
         inkscape:connector-curvature="0"
         style="fill:#1f518a;fill-opacity:1;stroke-width:0.35564941"
         d="m 796.9251,1001.5067 c -0.88029,0.011 -1.7817,0.083 -2.69965,0.2199 -6.03919,0.8982 -10.04777,4.1788 -11.71771,9.589 -0.91944,2.9839 -0.91714,14.2884 0.005,17.2858 1.47169,4.7824 5.05536,8.2501 9.73905,9.4243 v 0 c 2.03056,0.5075 9.85273,0.2051 12.79084,-0.4949 3.318,-0.7906 4.76179,-1.7704 5.42853,-3.6843 0.45953,-1.3193 0.45953,-1.6805 0,-2.9998 -0.63089,-1.8108 -2.38853,-3.1237 -4.18233,-3.1237 -0.68349,0 -2.34505,0.328 -3.69266,0.7294 -3.15502,0.9396 -6.81972,1.0253 -8.41262,0.1958 -1.08813,-0.5666 -2.52152,-2.828 -2.54339,-4.0135 -0.006,-0.3091 2.18906,-0.4508 8.26154,-0.5335 9.18056,-0.125 9.91723,-0.2889 11.32902,-2.5298 0.64022,-1.0162 0.7028,-1.5978 0.57935,-5.4067 -0.1251,-3.8593 -0.2439,-4.4965 -1.23782,-6.6538 -2.36959,-5.1433 -7.48726,-8.0816 -13.64947,-8.0042 z m -0.30425,9.1253 c 0.85938,-0.014 1.76943,0.1577 2.66636,0.5325 1.32974,0.5556 2.65681,2.3879 2.66214,3.6666 0,0.7932 -0.0443,0.8002 -5.15554,0.8002 -3.89255,0 -5.15512,-0.1094 -5.14925,-0.445 0.005,-0.2444 0.31955,-1.1305 0.70018,-1.9692 0.73806,-1.6262 2.38554,-2.554 4.27611,-2.5851 z"
         id="path1527" /><path
         inkscape:connector-curvature="0"
         style="fill:#1f518a;fill-opacity:1;stroke-width:0.35564941"
         d="m 843.70619,988.82942 c -1.06156,-0.0384 -2.12995,0.18068 -3.01851,0.69394 -2.06257,1.1913 -2.46102,2.48465 -2.46102,7.99896 v 4.83048 l -2.51528,-0.5397 c -4.91943,-1.0563 -10.74123,0.4009 -13.79324,3.4529 -3.14611,3.1461 -3.9652,6.2195 -3.95933,14.8623 0.005,6.3505 0.25996,8.2415 1.51287,11.2009 1.2183,2.8775 4.49276,5.501 8.15112,6.5309 2.9946,0.843 11.34998,0.504 15.10398,-0.6127 3.67926,-1.0945 4.64709,-1.7401 5.50252,-3.6739 0.65959,-1.4911 0.68461,-2.4247 0.58869,-21.5922 -0.0922,-18.42008 -0.15098,-20.11007 -0.72627,-20.98779 -0.86621,-1.32142 -2.61621,-2.10013 -4.38553,-2.16409 z m -10.2673,22.32668 c 1.16169,0 2.41066,0.272 3.59263,0.8356 l 1.19514,0.57 v 7.8896 7.8896 l -1.33369,0.2209 c -4.31975,0.714 -6.99523,-0.063 -7.94172,-2.3079 -0.7801,-1.8501 -0.6988,-11.4893 0.10942,-12.9795 0.7466,-1.3767 2.44214,-2.1207 4.37822,-2.1183 z"
         id="path1523" /><path
         inkscape:connector-curvature="0"
         style="fill:#1f518a;fill-opacity:1;stroke-width:0.35564941"
         d="m 859.38798,1038.0723 c -0.39125,-0.1723 -1.11144,-0.7436 -1.60043,-1.2696 l -0.88914,-0.9563 -0.0937,-15.5313 c -0.0888,-14.7149 -0.0583,-15.5889 0.58036,-16.6268 1.85665,-3.017 7.06912,-2.9954 8.94338,0.037 0.7084,1.1462 0.72515,1.5904 0.62795,16.6711 l -0.0998,15.4935 -1.14515,1.1448 c -1.01195,1.0117 -1.40507,1.1568 -3.37871,1.2477 -1.22843,0.057 -2.55358,-0.038 -2.94477,-0.2103 z"
         id="path1519" /><path
         inkscape:connector-curvature="0"
         style="fill:#1f518a;fill-opacity:1;stroke-width:0.35564941"
         d="m 883.33611,1037.7102 c -4.94595,-1.5818 -7.89814,-4.9459 -9.03113,-10.2915 -0.67906,-3.2036 -0.66551,-11.9863 0.0229,-14.9064 1.69714,-7.1981 6.96824,-11.0903 15.03853,-11.1045 2.45857,-0.01 6.79768,1.037 9.0426,2.1703 2.46043,1.242 3.47579,2.6635 3.47771,4.8687 0.005,4.2365 -3.25744,5.7377 -8.32251,3.8313 -4.65862,-1.7536 -7.17587,-1.3917 -8.48005,1.2191 -0.87986,1.7612 -0.90995,11.2019 -0.0416,13.032 1.19034,2.5084 3.62591,2.8495 8.41678,1.1787 3.12557,-1.0901 4.68982,-1.1563 6.4027,-0.2709 1.8502,0.9563 2.62379,4.6741 1.40357,6.7454 -0.76063,1.2912 -4.76488,3.3447 -7.51718,3.855 -3.04795,0.5651 -8.12055,0.4057 -10.4124,-0.3272 z"
         id="path1517" /><path
         inkscape:connector-curvature="0"
         style="fill:#1f518a;fill-opacity:1;stroke-width:0.35564941"
         d="m 909.10723,1037.6958 c -2.25121,-1.3727 -2.24006,-1.2849 -2.24006,-17.6365 0,-16.8978 -0.04,-16.6321 2.72477,-17.9707 2.03692,-0.986 4.24187,-0.7951 5.96088,0.516 1.90408,1.4524 2.03841,2.7578 1.91422,18.5997 -0.10019,12.7905 -0.1577,13.8915 -0.77877,14.9174 -0.36884,0.6092 -1.11373,1.3694 -1.65532,1.6893 -1.39082,0.8216 -4.48806,0.7614 -5.92572,-0.1152 z"
         id="path1515" /><path
         inkscape:connector-curvature="0"
         style="fill:#1f518a;fill-opacity:1;stroke-width:0.35564941"
         d="m 927.44962,1037.7939 c -0.51395,-0.319 -1.23414,-1.0749 -1.60043,-1.6799 -0.6208,-1.0252 -0.66609,-2.0427 -0.66609,-14.9703 0,-13.3513 0.0272,-13.9168 0.73054,-15.1139 0.40181,-0.684 1.24795,-1.5923 1.88039,-2.0185 3.45243,-2.3265 14.85501,-3.2427 19.61717,-1.5762 3.39044,1.1865 5.3452,2.7776 6.81807,5.5496 1.48722,2.7989 1.69149,4.7421 1.70488,16.2183 0.0123,10.7505 0.005,10.8984 -0.79824,12.0869 -1.15796,1.7184 -2.19386,2.1522 -4.80132,2.0109 -1.96063,-0.1063 -2.37337,-0.2608 -3.37865,-1.2654 l -1.14516,-1.1444 -0.17781,-10.8159 c -0.16815,-10.2284 -0.21787,-10.8704 -0.91442,-11.8193 -1.26236,-1.7195 -2.84043,-2.3136 -5.48726,-2.0656 -3.96297,0.3713 -3.55652,-0.9937 -3.55652,11.945 0,12.6158 -0.0966,13.2538 -2.20138,14.5371 -1.47655,0.9002 -4.6655,0.9646 -6.02377,0.1216 z"
         id="path1513" /><path
         inkscape:connector-curvature="0"
         style="fill:#1f518a;fill-opacity:1;stroke-width:0.35564941"
         d="m 977.13931,1001.5098 c -4.27664,0.068 -8.24468,1.5739 -10.66217,4.1584 -3.19295,3.4135 -4.11778,6.6827 -4.11778,14.5861 0,7.2474 0.88642,10.6101 3.62181,13.7255 1.46844,1.6724 3.51736,2.9578 5.96931,3.7458 v 0 c 5.33831,1.7148 16.91652,0.016 18.72787,-2.7486 0.72633,-1.1082 0.72291,-3.6131 -0.007,-5.0253 -1.17893,-2.2797 -3.65852,-2.7613 -7.6958,-1.4941 -1.27148,0.3991 -3.35165,0.7444 -4.62308,0.7668 -3.49783,0.061 -5.35752,-1.1664 -5.90364,-3.8968 l -0.22193,-1.1128 8.30844,-0.1126 c 7.55719,-0.1027 8.41619,-0.1771 9.49834,-0.8241 1.79221,-1.0716 2.54441,-2.8506 2.54441,-6.0152 0,-8.8404 -4.47617,-14.4386 -12.44494,-15.5655 -1.00458,-0.1421 -2.00762,-0.2032 -2.99455,-0.1876 z m 0.32409,9.142 c 2.69324,0 4.53213,1.4071 5.01903,3.8417 l 0.2271,1.1378 h -5.24613 -5.24517 l 0.22715,-1.1378 c 0.48696,-2.4346 2.32483,-3.8417 5.01802,-3.8417 z"
         id="path1511" /><path
         inkscape:connector-curvature="0"
         style="fill:#1f518a;fill-opacity:1;stroke-width:0.35564941"
         d="m 664.34571,997.92051 c -1.51839,-0.75754 -2.47828,-2.03478 -2.88304,-3.83621 -0.94854,-4.22165 2.6952,-7.86283 6.91578,-6.91095 3.80369,0.85788 5.52244,4.72306 3.73872,8.40777 -1.27332,2.63029 -4.96237,3.74077 -7.77146,2.33939 z"
         id="path1507" /><path
         inkscape:connector-curvature="0"
         style="fill:#1f518a;fill-opacity:1;stroke-width:0.35564941"
         d="m 859.37032,998.07943 c -3.27052,-1.48402 -4.26091,-5.72098 -2.10594,-9.00984 0.79749,-1.21713 2.60314,-1.99205 4.64175,-1.99205 3.48508,0 5.63077,2.21904 5.65067,5.84373 0.0123,2.1802 -0.58031,3.34093 -2.39674,4.69708 -1.19221,0.8901 -4.29895,1.13747 -5.78974,0.46108 z"
         id="path1505" /><path
         inkscape:connector-curvature="0"
         style="fill:#1f518a;fill-opacity:1;stroke-width:0.35564941"
         d="m 909.38821,997.92051 c -1.51843,-0.75754 -2.47831,-2.03478 -2.88311,-3.83621 -0.94851,-4.22165 2.69522,-7.86283 6.9158,-6.91095 3.80373,0.85788 5.52247,4.72306 3.73875,8.40777 -1.2733,2.63029 -4.96238,3.74077 -7.77144,2.33939 z"
         id="path1503" /></g><path
       id="path1501"
       d="m 598.99059,899.11094 c -2.71746,0.009 -5.64634,0.3115 -8.06567,0.90545 -3.92473,0.96356 -5.366,1.76657 -6.43503,3.58636 -0.70911,1.20709 -0.73308,1.81736 -0.84085,20.80445 -0.0611,10.75835 -0.01,20.40273 0.11461,21.43169 0.23878,1.97661 1.41233,3.7973 2.81221,4.36364 1.41485,0.57236 4.23687,0.37941 5.47436,-0.37509 1.89081,-1.15278 2.20162,-2.4065 2.20162,-8.88671 v -5.71818 l 1.33369,0.28236 c 0.73352,0.15556 3.09345,0.28341 5.24513,0.28341 3.64076,0 4.07458,-0.0774 6.24852,-1.10758 2.65133,-1.25633 4.65521,-3.13465 5.838,-5.47228 1.42932,-2.82485 1.68655,-4.96782 1.53478,-12.80338 -0.15527,-8.01624 -0.35988,-8.95293 -2.66633,-12.2251 -1.34078,-1.90215 -3.10875,-3.14308 -5.9995,-4.21153 -1.57238,-0.58124 -4.07808,-0.86621 -6.79554,-0.85751 z m -0.25215,9.57753 c 2.4277,-0.0368 4.0095,0.79835 4.79397,2.52566 0.54057,1.19029 0.66253,2.35084 0.66893,6.35793 0.008,5.21145 -0.29789,6.60003 -1.74108,7.88645 -1.15624,1.03062 -4.71316,1.14826 -6.69761,0.22194 l -1.51081,-0.7054 v -7.81768 c 0,-8.8672 -0.35136,-7.99971 3.39361,-8.40014 0.38144,-0.0408 0.74618,-0.0635 1.09299,-0.0688 z"
       style="fill:#1f518a;fill-opacity:1;stroke-width:0.35564941"
       inkscape:connector-curvature="0" /><path
       id="path1497"
       d="m 463.90581,935.32297 c -6.26354,-1.86556 -10.14772,-5.83045 -11.72516,-11.96865 -0.7976,-3.1037 -0.78645,-21.38469 0.0149,-24.47729 0.81222,-3.13448 2.04144,-5.33069 4.17142,-7.45295 3.6054,-3.59231 7.5279,-4.99449 13.94413,-4.98457 4.43578,0.007 7.28073,0.60362 10.39011,2.17945 2.50992,1.27202 3.62217,2.41541 4.00627,4.11842 0.60386,2.67746 -0.84983,5.16046 -3.4229,5.84651 -1.57467,0.41989 -2.8537,0.17055 -5.99801,-1.16922 -2.69803,-1.14958 -6.68816,-1.26503 -8.90595,-0.25761 -1.75402,0.79674 -3.21261,2.46358 -3.70395,4.23274 -0.20691,0.745 -0.36669,5.12807 -0.36585,10.03603 0.002,8.46405 0.0261,8.76621 0.86017,10.55767 0.59464,1.27719 1.32378,2.15209 2.37119,2.84523 1.38083,0.91379 1.79342,1.00058 4.73932,0.99722 2.87232,-0.005 3.50687,-0.13027 5.77598,-1.15587 1.45444,-0.65735 3.13448,-1.15156 3.91214,-1.15081 1.5659,0 3.3685,0.97897 4.22989,2.29361 0.77795,1.18725 0.78157,4.17545 0.007,5.35838 -0.92946,1.41851 -3.32361,2.95939 -5.86615,3.7755 -3.34549,1.07383 -11.38818,1.28343 -14.43408,0.37621 z"
       style="fill:#1f518a;fill-opacity:1;stroke-width:0.35564941"
       inkscape:connector-curvature="0" /><path
       id="path1495"
       d="m 504.98454,899.07134 c -1.00553,0.0189 -2.01967,0.1009 -3.02476,0.25007 -7.08068,1.05089 -11.26996,5.13787 -12.25532,11.95524 -0.47403,3.27969 -0.46264,9.54228 0.0229,12.70648 0.92922,6.05525 4.27448,9.89106 9.95888,11.41968 2.43984,0.65612 8.83614,0.70137 11.16544,0.0792 5.28331,-1.41132 8.59247,-4.72102 10.00681,-10.00786 0.69153,-2.58495 0.65141,-13.24997 -0.0604,-16.0188 -0.73213,-2.84785 -2.56187,-5.75088 -4.62101,-7.33215 -2.63595,-2.02424 -6.83525,-3.13359 -11.19254,-3.05185 z m 0.21047,9.69944 c 1.18186,-0.0183 2.41361,0.1908 3.24982,0.63454 2.07557,1.10147 2.40688,2.23807 2.40688,8.26051 0,5.94056 -0.21776,6.65909 -2.42044,8.00211 -1.44466,0.88088 -4.26152,0.91474 -5.9078,0.0719 -2.11057,-1.0805 -2.51891,-2.39338 -2.51838,-8.08443 5.4e-4,-5.50161 0.34789,-6.76635 2.24018,-8.15423 0.63606,-0.46653 1.76787,-0.71212 2.94974,-0.7304 z"
       style="fill:#1f518a;fill-opacity:1;stroke-width:0.35564941"
       inkscape:connector-curvature="0" /><path
       id="path1491"
       d="m 530.30194,935.24524 c -2.14355,-1.30691 -2.20141,-1.74035 -2.20141,-16.49401 0,-8.57533 0.13522,-13.68201 0.37934,-14.32628 0.85367,-2.25313 2.50169,-3.34051 6.65267,-4.38975 5.78632,-1.46252 11.94464,-1.27473 15.37391,0.46882 l 1.60042,0.81371 1.95607,-0.79397 c 7.28813,-2.95833 16.41584,-1.21702 19.65942,3.75037 2.18627,3.34819 2.19847,3.4359 2.32086,16.68579 l 0.1127,12.20152 -1.40212,1.40207 c -1.31428,1.31432 -1.53284,1.40208 -3.48894,1.4008 -2.29681,0 -4.01204,-0.78511 -4.82041,-2.20245 -0.34551,-0.60576 -0.51359,-3.61599 -0.64508,-11.55249 -0.1687,-10.18226 -0.216,-10.78476 -0.92134,-11.73643 -0.40893,-0.55172 -1.37858,-1.22773 -2.15477,-1.50221 -1.25529,-0.44395 -1.63494,-0.42875 -3.43536,0.13759 l -2.02412,0.63664 v 11.72961 11.72954 l -1.38075,1.3808 c -1.27906,1.27905 -1.52921,1.38073 -3.39633,1.38073 -2.40571,0 -3.89401,-0.68882 -4.83985,-2.24005 -0.6466,-1.06044 -0.69433,-1.85089 -0.69557,-11.51819 -0.002,-10.49738 -0.14709,-11.87818 -1.349,-12.78103 -0.86663,-0.65094 -3.18553,-0.91773 -5.05402,-0.58143 l -1.60042,0.28802 -0.17782,11.72704 c -0.16186,10.67381 -0.23806,11.82648 -0.84842,12.83464 -0.36883,0.60923 -1.11371,1.36943 -1.65529,1.68936 -1.40998,0.83286 -4.48815,0.76126 -5.96437,-0.13876 z"
       style="fill:#1f518a;fill-opacity:1;stroke-width:0.35564941"
       inkscape:connector-curvature="0" /><path
       id="path1489"
       d="m 630.97236,935.4375 c -5.71483,-1.60431 -8.51793,-5.01833 -9.34548,-11.3822 -0.17833,-1.3714 -0.32893,-6.65456 -0.33467,-11.74032 -0.009,-8.11468 0.0657,-9.39624 0.61141,-10.46639 1.76846,-3.46817 6.79135,-3.81056 9.13213,-0.62251 0.6962,0.94819 0.74633,1.59167 0.91441,11.73643 0.19472,11.75318 0.21193,11.84686 2.36217,12.86723 1.1675,0.55401 3.62229,0.68274 5.88516,0.30862 l 1.31217,-0.21697 0.11043,-11.84584 c 0.10561,-11.32897 0.14256,-11.88959 0.84701,-12.84921 2.21807,-3.02165 6.86909,-2.90636 8.9593,0.22209 l 0.81882,1.22555 -0.10043,14.13066 c -0.0976,13.72906 -0.12171,14.1592 -0.84891,15.13434 -1.84583,2.47516 -6.02551,3.69687 -13.29968,3.88748 -3.80871,0.0998 -5.64499,0 -7.02384,-0.38896 z"
       style="fill:#1f518a;fill-opacity:1;stroke-width:0.35564941"
       inkscape:connector-curvature="0" /><path
       id="path1487"
       d="m 667.30298,935.33764 c -2.76414,-0.98869 -4.57139,-2.62181 -5.91042,-5.34104 l -1.16827,-2.37246 -0.0943,-18.85757 c -0.0912,-18.2199 -0.0707,-18.89597 0.60541,-19.99407 1.00112,-1.62598 2.25169,-2.3204 4.2328,-2.35028 2.32464,-0.0352 3.8052,0.64743 4.76159,2.19488 0.70345,1.13822 0.81428,1.87292 0.93263,6.182 l 0.13429,4.8903 3.07158,5.4e-4 c 3.67553,5.3e-4 5.25815,0.63777 6.18295,2.48903 1.26937,2.54099 0.40504,5.71084 -1.86661,6.8457 -0.90003,0.44961 -2.10662,0.62197 -4.3567,0.62235 l -3.11193,4.2e-4 v 7.79886 c 0,9.35042 -0.14431,9.00995 3.682,8.68651 2.03222,-0.17178 2.82042,-0.0917 3.7308,0.37908 3.28533,1.69891 3.33397,6.65451 0.0838,8.5318 -1.78355,1.03019 -8.35596,1.20715 -10.90952,0.29379 z"
       style="fill:#1f518a;fill-opacity:1;stroke-width:0.35564941"
       inkscape:connector-curvature="0" /><path
       id="path1485"
       d="m 699.08888,899.12657 c -4.00205,0.0621 -8.41623,0.85476 -10.99457,2.18807 -3.0602,1.5825 -3.2578,6.62921 -0.31883,8.14903 1.49594,0.77359 3.69527,0.66014 6.8716,-0.35426 3.09482,-0.98837 5.40208,-1.12041 7.11021,-0.40636 1.47227,0.61542 2.0205,1.29868 2.26831,2.82574 l 0.20005,1.23262 -5.64107,0.1563 c -4.98426,0.13816 -5.89152,0.25917 -7.79685,1.04193 -3.10464,1.27544 -4.64508,2.63317 -5.86196,5.16387 -0.89634,1.86401 -1.05028,2.60576 -1.05028,5.05446 0,3.81951 0.89706,6.23405 3.05706,8.22508 1.7367,1.60085 3.22478,2.35701 6.012,3.05602 0.97804,0.24529 3.77843,0.45406 6.22351,0.46367 7.70071,0.0309 12.56753,-1.30945 14.04225,-3.86874 0.67653,-1.17407 0.71691,-1.8617 0.71477,-12.09277 -0.003,-11.86975 -0.10318,-12.63402 -2.04741,-15.50305 -1.39589,-2.05979 -3.69758,-3.68881 -6.5163,-4.61268 -1.61864,-0.53055 -3.87126,-0.75623 -6.27249,-0.71893 z m 1.31284,22.25795 h 3.74578 v 2.46107 c 0,2.40319 -0.0234,2.46539 -0.97838,2.64549 -1.64349,0.30989 -5.55951,0.52884 -6.31312,0.35322 -2.67607,-0.62374 -3.67487,-1.78989 -3.01643,-3.52176 0.53983,-1.41985 2.29687,-1.93802 6.56215,-1.93802 z"
       style="fill:#1f518a;fill-opacity:1;stroke-width:0.35564941"
       inkscape:connector-curvature="0" /><path
       id="path1481"
       d="m 729.3981,935.63307 c -2.94008,-0.89757 -5.38174,-2.93954 -6.72675,-5.62559 -1.29391,-2.58398 -1.49908,-6.07637 -1.38411,-23.56072 0.12082,-18.37338 0.0941,-18.16687 2.5154,-19.44374 1.49108,-0.78634 4.55515,-0.77002 5.77734,0.0309 1.96775,1.2893 2.30488,2.42442 2.30633,7.76541 l 10e-4,4.89019 h 3.03444 c 5.03144,0 6.92374,1.33465 6.92374,4.88327 0,3.84976 -1.62284,5.07493 -6.72217,5.07493 h -3.23601 v 7.56728 c 0,9.45423 -0.0868,9.2522 3.84779,8.95308 4.43898,-0.33747 6.09465,0.95482 6.10515,4.76526 0.005,1.68141 -0.13113,2.03905 -1.16731,3.07527 -0.6449,0.64486 -1.80521,1.34819 -2.57846,1.56286 -1.57704,0.43782 -7.33095,0.47869 -8.69672,0.0617 z"
       style="fill:#1f518a;fill-opacity:1;stroke-width:0.35564941"
       inkscape:connector-curvature="0" /><path
       id="path1479"
       d="m 749.065,935.26877 c -2.25121,-1.37269 -2.24006,-1.28488 -2.24006,-17.63655 0,-16.89779 -0.0405,-16.63207 2.72477,-17.97061 2.03692,-0.98602 4.24182,-0.7952 5.96083,0.51598 1.90408,1.45233 2.03846,2.75774 1.91427,18.59962 -0.10024,12.79053 -0.1577,13.89151 -0.77882,14.91743 -0.36885,0.60923 -1.11374,1.36943 -1.65532,1.68936 -1.39077,0.82155 -4.48806,0.76132 -5.92567,-0.11523 z"
       style="fill:#1f518a;fill-opacity:1;stroke-width:0.35564941"
       inkscape:connector-curvature="0" /><path
       id="path1477"
       d="m 780.36969,899.06926 c -2.79754,-0.0301 -5.62912,0.4315 -8.14903,1.37432 -2.71619,1.01627 -5.70546,4.03049 -6.85701,6.91328 -1.91128,4.78489 -1.86519,16.12232 0.0834,20.52834 1.65382,3.73954 5.30054,6.73357 9.36706,7.69057 2.15038,0.50605 8.61299,0.43699 10.68511,-0.11462 5.35811,-1.4264 8.56722,-4.54268 9.91926,-9.63171 1.1793,-4.43887 0.91555,-14.51624 -0.47303,-18.06518 -1.49715,-3.82661 -4.35011,-6.4918 -8.27093,-7.72808 -1.97386,-0.62242 -4.12893,-0.94349 -6.30481,-0.96692 z m -0.29171,9.69944 c 2.08125,0 3.55555,0.66109 4.59183,2.05991 0.65681,0.88658 0.75684,1.60018 0.86481,6.13183 0.11097,4.65712 0.0528,5.2724 -0.63766,6.69864 -0.50306,1.03932 -1.16367,1.76215 -1.95369,2.13702 -1.51933,0.72116 -4.31004,0.71521 -5.7859,-0.0125 -0.72179,-0.35594 -1.42165,-1.13952 -1.9005,-2.12869 -0.68749,-1.42038 -0.74644,-2.042 -0.63558,-6.69448 0.10798,-4.53165 0.20907,-5.24524 0.86588,-6.13182 1.03628,-1.39883 2.50957,-2.05992 4.59081,-2.05992 z"
       style="fill:#1f518a;fill-opacity:1;stroke-width:0.35564941"
       inkscape:connector-curvature="0" /><path
       id="path1473"
       d="m 805.10619,935.36682 c -0.5139,-0.31891 -1.23409,-1.07485 -1.60043,-1.67986 -0.6208,-1.02523 -0.66604,-2.04267 -0.66604,-14.9703 0,-13.35131 0.0272,-13.91684 0.73054,-15.1139 0.40176,-0.68397 1.2479,-1.59226 1.88039,-2.01846 3.45243,-2.32658 14.85501,-3.24277 19.61712,-1.5762 3.39045,1.1865 5.3452,2.77759 6.81812,5.54952 1.48722,2.79892 1.69144,4.74216 1.70483,16.21836 0.0123,10.75046 0.005,10.89834 -0.79824,12.08692 -1.15796,1.71832 -2.19386,2.15214 -4.80127,2.01088 -1.96067,-0.10622 -2.37342,-0.26082 -3.3787,-1.2654 l -1.14516,-1.14441 -0.1778,-10.81592 c -0.16816,-10.22841 -0.21782,-10.87039 -0.91443,-11.81928 -1.26231,-1.71955 -2.84043,-2.31357 -5.48726,-2.06556 -3.96292,0.3713 -3.55652,-0.99375 -3.55652,11.94491 0,12.61581 -0.0966,13.25385 -2.20138,14.53712 -1.47655,0.90018 -4.66549,0.96457 -6.02377,0.12158 z"
       style="fill:#1f518a;fill-opacity:1;stroke-width:0.35564941"
       inkscape:connector-curvature="0" /><path
       id="path1471"
       d="m 854.2017,899.06196 c -2.63957,0.0516 -5.41983,0.50827 -8.1501,1.40455 -1.46598,0.48119 -2.75053,1.196 -3.51031,1.95364 -1.14963,1.14638 -1.19215,1.28304 -1.04086,3.37484 0.1378,1.90467 0.30147,2.3086 1.29304,3.1946 0.95358,0.85201 1.44502,1.0138 3.0727,1.0138 1.12286,0 2.72477,-0.31041 3.8114,-0.73873 4.39781,-1.73347 8.70881,-1.18002 9.72342,1.24825 0.95754,2.29175 1.07821,2.23407 -5.08054,2.41625 -6.23951,0.18459 -8.37469,0.73458 -11.19564,2.88618 -4.47484,3.41307 -4.95721,12.06517 -0.9044,16.21053 1.50877,1.54324 3.63056,2.74009 5.97341,3.36964 1.22859,0.33017 3.65377,0.52758 6.57054,0.53452 7.6777,0.0183 12.60764,-1.24097 14.03698,-3.58532 0.68135,-1.11758 0.72104,-1.76557 0.72104,-12.23761 0,-12.03448 -0.14227,-13.17948 -1.99946,-15.85939 -2.39124,-3.45051 -7.51425,-5.29928 -13.32122,-5.18575 z m 1.97444,22.32256 h 3.74579 v 2.46107 c 0,2.40325 -0.0235,2.46539 -0.97839,2.64549 -2.04038,0.38474 -5.6552,0.50985 -7.00185,0.24173 -1.4048,-0.2797 -2.68924,-1.42046 -2.68924,-2.38813 0,-2.10616 1.99749,-2.96016 6.92369,-2.96016 z"
       style="fill:#1f518a;fill-opacity:1;stroke-width:0.35564941"
       inkscape:connector-curvature="0" /><path
       id="path1467"
       d="m 879.26922,935.29112 c -2.28124,-1.39109 -2.27665,-1.34212 -2.27601,-24.31687 0,-19.0135 0.0512,-20.80928 0.62235,-21.92888 0.94638,-1.8559 2.21178,-2.60944 4.41738,-2.63051 2.18639,-0.0208 3.90343,0.745 4.82559,2.15241 0.58,0.88514 0.62577,2.5435 0.62577,22.66523 0,20.73646 -0.0304,21.75497 -0.67522,22.70647 -0.37135,0.54794 -1.1236,1.22812 -1.67164,1.5115 -1.43611,0.74265 -4.52664,0.65868 -5.86822,-0.15935 z"
       style="fill:#1f518a;fill-opacity:1;stroke-width:0.35564941"
       inkscape:connector-curvature="0" /><path
       id="path1465"
       d="m 926.32697,899.03592 c -3.72935,0.002 -7.93841,0.79342 -10.79452,2.13598 -2.65062,1.24593 -3.65398,3.91542 -2.43606,6.48191 1.1762,2.47885 3.82517,2.93434 8.45535,1.4556 4.4082,-1.40779 7.51414,-1.0703 8.94401,0.97109 0.30526,0.4359 0.5554,1.21742 0.5554,1.73691 v 0.94504 l -5.42335,0.17609 c -4.13432,0.13428 -5.907,0.34371 -7.4561,0.88044 -5.21561,1.80731 -7.69856,5.74584 -7.31446,11.60306 0.34521,5.26289 3.13042,8.39675 8.90235,10.01515 2.57134,0.72094 11.89268,0.51388 15.49785,-0.34384 3.03883,-0.72302 4.82516,-2.05774 5.42121,-4.05107 0.2565,-0.85831 0.34879,-4.99001 0.2709,-12.148 l -0.11774,-10.84661 -0.98879,-2.01407 c -1.7769,-3.6184 -5.16259,-5.8921 -10.01411,-6.72678 -1.06855,-0.18383 -2.25884,-0.27149 -3.50194,-0.2709 z m 0.9784,22.3486 h 3.74578 v 2.48191 c 0,2.28834 -0.0627,2.49628 -0.80021,2.64965 -1.35465,0.28157 -5.37347,0.48881 -6.31212,0.32509 -2.64662,-0.46156 -3.55512,-1.51046 -3.04976,-3.52385 0.35535,-1.41578 2.07137,-1.9328 6.41631,-1.9328 z"
       style="fill:#1f518a;fill-opacity:1;stroke-width:0.35564941"
       inkscape:connector-curvature="0" /><path
       id="path1461"
       d="m 951.14552,935.64545 c -0.39119,-0.17226 -1.11138,-0.7435 -1.60042,-1.26951 l -0.88914,-0.9563 -0.10061,-14.20812 c -0.11278,-15.91962 -0.10745,-15.95894 2.37902,-17.56667 2.94953,-1.90717 11.23651,-3.08641 16.39201,-2.33256 6.60377,0.96559 9.82734,3.78703 11.41645,9.99229 0.37221,1.45345 0.49789,4.63434 0.49837,12.61309 0,9.82547 -0.0523,10.75708 -0.66993,11.77713 -0.95007,1.56922 -2.33139,2.271 -4.46998,2.271 -2.22427,0 -3.73037,-0.72488 -4.65425,-2.24005 -0.64422,-1.05666 -0.6949,-1.85532 -0.70333,-11.0968 -0.008,-8.93569 -0.077,-10.10768 -0.67041,-11.41416 -1.09757,-2.4168 -3.96484,-3.10722 -8.46779,-2.03894 l -0.78687,0.18667 -0.10221,12.05043 -0.10227,12.05043 -1.14516,1.14478 c -1.01189,1.01152 -1.40511,1.15668 -3.37865,1.24759 -1.22848,0.0566 -2.55363,-0.0379 -2.94483,-0.2103 z"
       style="fill:#1f518a;fill-opacity:1;stroke-width:0.35564941"
       inkscape:connector-curvature="0" /><path
       id="path1459"
       d="m 1011.6068,886.37841 c -1.4212,-8e-5 -2.8428,0.51807 -3.8813,1.55562 l -1.0982,1.0982 -0.1136,5.44102 -0.1125,5.44102 -2.1995,-0.46053 c -2.8491,-0.59712 -4.83225,-0.58322 -7.84062,0.0542 -5.18457,1.09842 -8.51201,4.39686 -9.86927,9.78383 -0.77279,3.0671 -0.66076,14.48984 0.16879,17.24934 1.44726,4.81391 4.22191,7.49709 9.20035,8.89506 v -10e-4 c 2.78281,0.78143 10.92445,0.49651 14.67785,-0.51368 3.1754,-0.85462 4.2474,-1.493 5.4316,-3.23314 l 0.8085,-1.18781 -0.097,-20.73464 -0.097,-20.7336 -1.0982,-1.0982 c -1.038,-1.03723 -2.459,-1.55554 -3.8801,-1.55562 z m -10.3215,22.41529 c 1.1456,-0.003 2.4002,0.20219 3.4748,0.61683 l 1.689,0.65121 v 7.9271 7.92604 l -1.3337,0.21985 c -2.1726,0.35914 -5.1834,0.24934 -6.1005,-0.22193 -0.47015,-0.24166 -1.19034,-0.89054 -1.60042,-1.44205 -0.66674,-0.89666 -0.75828,-1.57782 -0.85959,-6.44337 -0.12585,-6.04719 0.19114,-7.47644 1.90776,-8.60122 0.63958,-0.41896 1.67705,-0.62954 2.82265,-0.63246 z"
       style="fill:#1f518a;fill-opacity:1;stroke-width:0.35564941"
       inkscape:connector-curvature="0" /><path
       id="path1455"
       d="m 749.34593,895.49326 c -1.51838,-0.75754 -2.47831,-2.03478 -2.88306,-3.83622 -0.94851,-4.22164 2.69522,-7.86282 6.9158,-6.91094 3.80367,0.85788 5.52242,4.72306 3.73869,8.40777 -1.27329,2.63029 -4.96237,3.74077 -7.77143,2.33939 z"
       style="fill:#1f518a;fill-opacity:1;stroke-width:0.35564941"
       inkscape:connector-curvature="0" /></g><g
     id="g1608"
     transform="matrix(0.51464409,0,0,0.51464409,373.02231,-352.603)"
     style="fill:#1f518a;fill-opacity:1"><path
       id="path1453"
       d="m 530.61159,787.62588 c -4.27622,-2.6076 -4.26763,-2.5158 -4.26648,-45.5821 6.7e-4,-35.6408 0.0965,-39.007 1.16667,-41.1058 1.77394,-3.4789 4.14593,-4.8914 8.28044,-4.9309 4.09691,-0.039 7.31602,1.3961 9.04558,4.0328 0.95503,1.4559 1.21544,3.6296 1.40171,11.7002 0.20567,8.9119 0.34023,9.867 1.33333,9.4643 3.1665,-1.284 10.23162,-1.8332 14.99171,-1.1652 8.91304,1.2507 15.29393,5.3397 18.42466,11.8069 3.05959,6.3203 3.33873,8.8557 3.34446,30.3779 0.005,18.9988 -0.08,20.4734 -1.29594,22.4676 -1.93384,3.1716 -4.80647,4.3993 -9.49925,4.0599 -3.32957,-0.2408 -4.24904,-0.6076 -6.05978,-2.4171 l -2.13462,-2.1332 -0.33334,-20.274 c -0.31522,-19.1727 -0.40834,-20.3763 -1.71405,-22.1553 -3.12239,-4.2543 -9.50207,-5.2952 -14.51695,-2.3687 l -2.10233,1.2269 -0.33333,21.2969 c -0.30513,19.4946 -0.44045,21.455 -1.599,23.1644 -0.69612,1.027 -2.10622,2.302 -3.13356,2.8333 -2.69191,1.392 -8.48519,1.2347 -10.99993,-0.2988 z"
       style="fill:#1f518a;fill-opacity:1;stroke-width:0.66666669"
       inkscape:connector-curvature="0" /><path
       id="path1451"
       d="m 627.5332,719.71484 c -2.1178,-0.0276 -4.32623,0.0971 -6.61523,0.37891 -13.4055,1.6506 -21.19182,8.42805 -23.83399,20.74805 -1.24526,5.8064 -0.94769,23.6622 0.48047,28.8125 2.7583,9.9473 8.37166,15.53913 18.2793,18.20703 4.53285,1.2206 16.51031,1.27731 20.93359,0.0996 9.96715,-2.6539 16.16967,-9.0758 18.56055,-19.2168 1.19964,-5.0882 1.35762,-22.81288 0.25,-27.98828 -2.82654,-13.20743 -13.2301,-20.84742 -28.05469,-21.04102 z m -1.18945,18.19727 c 2.18349,0 4.36669,0.43538 5.82227,1.30273 3.73606,2.2263 4.48234,4.7674 4.49804,15.3418 0.0158,10.6321 -0.7773,13.03092 -5.00976,15.16602 -1.27086,0.6411 -3.66055,1.16601 -5.31055,1.16601 -3.90883,0 -7.28565,-1.75446 -8.97656,-4.66406 -1.18789,-2.0441 -1.35547,-3.49187 -1.35547,-11.66797 0,-10.5708 0.742,-13.0966 4.50976,-15.3418 1.45558,-0.86735 3.63878,-1.30273 5.82227,-1.30273 z"
       style="fill:#1f518a;fill-opacity:1;stroke-width:0.66666669"
       inkscape:connector-curvature="0" /><path
       id="path1447"
       d="m 686.67741,787.99108 c -10.10997,-2.6259 -15.82806,-9.0254 -17.66228,-19.7671 -0.46294,-2.7112 -0.66466,-11.6529 -0.53883,-23.8855 l 0.20111,-19.5521 2.44624,-2.2409 c 3.9862,-3.6516 9.89274,-3.9136 13.81558,-0.6128 2.93164,2.4669 3.40485,6.0374 3.40485,25.6905 0,19.058 0.2247,20.3151 3.97818,22.2561 2.02091,1.0451 7.15578,1.3051 11.52182,0.5834 l 2.5,-0.4132 0.001,-21.4128 c 6.7e-4,-19.0685 0.12866,-21.663 1.16667,-23.6987 3.31518,-6.5014 12.73153,-7.1429 17.11825,-1.1662 1.33199,1.8148 1.38736,2.7913 1.56891,27.6667 0.18764,25.7113 0.18381,25.794 -1.33334,28.7702 -1.79594,3.5231 -4.16308,5.0329 -10.73438,6.8465 -6.10805,1.6857 -22.42507,2.242 -27.45381,0.9359 z"
       style="fill:#1f518a;fill-opacity:1;stroke-width:0.66666669"
       inkscape:connector-curvature="0" /><path
       id="path1445"
       d="m 867.5293,719.83398 c -7.50187,0.11654 -15.77626,1.60421 -20.60938,4.10352 -5.73636,2.9664 -6.10677,12.42659 -0.59765,15.27539 2.80416,1.4501 6.9268,1.23744 12.88085,-0.66406 5.80126,-1.8528 10.12623,-2.10012 13.32813,-0.76172 2.75978,1.1536 3.78743,2.43242 4.25195,5.29492 l 0.375,2.3125 -10.57422,0.29297 c -9.34302,0.259 -11.04368,0.48582 -14.61523,1.95312 -5.81966,2.39081 -8.70722,4.93394 -10.98828,9.67774 -1.68018,3.4942 -1.96875,4.88656 -1.96875,9.47656 0,7.1598 1.68154,11.68587 5.73047,15.41797 3.25546,3.0008 6.04487,4.41812 11.26953,5.72852 1.83334,0.4598 7.08268,0.85114 11.66601,0.86914 14.43502,0.058 23.5579,-2.45651 26.32227,-7.25391 1.26816,-2.2008 1.34384,-3.48792 1.33984,-22.66602 -0.005,-22.24989 -0.19341,-23.68264 -3.83789,-29.06054 -2.61658,-3.8611 -6.93113,-6.91459 -12.21484,-8.64649 -3.03415,-0.9945 -7.25669,-1.41953 -11.75781,-1.34961 z m 2.46093,41.72266 h 7.02149 v 4.61328 c 0,4.5049 -0.0439,4.62334 -1.83399,4.96094 -3.08072,0.5809 -10.42132,0.99131 -11.83398,0.66211 -5.0163,-1.1692 -6.88856,-3.35526 -5.6543,-6.60156 1.01191,-2.6615 4.30548,-3.63477 12.30078,-3.63477 z"
       style="fill:#1f518a;fill-opacity:1;stroke-width:0.66666669"
       inkscape:connector-curvature="0" /><path
       id="path1441"
       d="m 919.45898,696.02344 c -2.07165,-0.0111 -4.20599,0.34893 -5.60351,1.08594 -4.59584,2.4237 -4.48822,1.48163 -4.72656,41.11523 -0.23713,39.4323 -0.10582,41.13008 3.40625,44.51758 2.59006,2.4981 4.43704,3.25499 11.80859,4.83789 6.87298,1.4758 18.92006,1.67653 23.66797,0.39453 9.88133,-2.6681 15.63184,-8.16279 18.04883,-17.24219 1.11588,-4.1918 1.29302,-27.21592 0.24414,-31.76562 -1.74202,-7.5562 -6.88644,-14.09022 -13.29297,-16.88282 -4.90581,-2.1385 -13.42816,-2.9166 -19.16797,-1.75 l -4.83203,0.98243 -0.004,-9.37891 c -0.003,-10.2446 -0.61526,-12.34053 -4.32226,-14.76953 -1.1455,-0.75065 -3.15491,-1.13344 -5.22657,-1.14453 z m 19.05079,41.86718 c 2.29166,0.0237 4.40306,0.49435 5.63281,1.40626 2.80594,2.08059 3.45898,4.89923 3.45898,14.92773 0,10.4174 -0.65429,12.99018 -3.85547,15.14258 -1.84506,1.2406 -3.083,1.50483 -6.66797,1.42383 -2.42078,-0.0549 -5.22604,-0.22621 -6.23437,-0.37891 l -1.83203,-0.27734 v -14.85352 -14.85547 l 2.78516,-1.25586 c 1.94917,-0.87895 4.42122,-1.30303 6.71289,-1.2793 z"
       style="fill:#1f518a;fill-opacity:1;stroke-width:0.66666669"
       inkscape:connector-curvature="0" /><path
       id="path1437"
       d="m 452.54311,786.25078 c -1.17387,-0.7157 -2.59887,-2.1997 -3.16667,-3.2977 -1.30273,-2.5192 -1.33098,-7.5514 -0.0562,-10.0165 0.53687,-1.0382 9.5592,-14.1483 20.04962,-29.1335 l 19.07349,-27.2459 -17.21629,-0.3334 c -19.57262,-0.3789 -19.93505,-0.4733 -21.9367,-5.7146 -1.82202,-4.7709 -0.44139,-9.5038 3.53241,-12.1094 1.61697,-1.0603 4.25629,-1.1972 26.82405,-1.392 16.96078,-0.1465 26.14815,0.028 28.49691,0.5402 5.73311,1.251 9.03596,6.3461 7.9312,12.2349 -0.26248,1.3992 -7.70606,12.7261 -20.04345,30.5 l -19.62589,28.2743 17.46926,0.3333 c 12.79759,0.2442 17.88554,0.5706 19.02593,1.2205 1.81087,1.0319 4.07419,5.6195 4.09535,8.3009 0.0215,2.7167 -1.5634,6.0499 -3.66114,7.7 -1.81963,1.4313 -2.11154,1.4452 -30.24746,1.4428 -27.00165,0 -28.5159,-0.067 -30.54439,-1.3039 z"
       style="fill:#1f518a;fill-opacity:1;stroke-width:0.66666669"
       inkscape:connector-curvature="0" /><path
       id="path1205"
       d="m 778.90929,786.21178 c -1.33914,-0.7075 -3.13914,-2.4192 -4,-3.8039 l -1.56521,-2.5175 v -38.7844 c 0,-38.1322 0.0231,-38.8154 1.37453,-40.6255 2.50961,-3.3613 4.58047,-4.4472 8.48127,-4.4472 4.58228,0 7.41237,1.613 9.15836,5.2197 1.25841,2.5995 1.31918,4.2024 1.31918,34.7958 v 32.0708 l 16.16666,0.2188 c 12.73493,0.1723 16.57849,0.431 18.10672,1.2187 6.15652,3.1734 6.71443,13.125 0.93341,16.6496 -2.10168,1.2813 -3.28646,1.3441 -24.87346,1.3184 -21.07505,-0.025 -22.83763,-0.1173 -25.10146,-1.3133 z"
       style="fill:#1f518a;fill-opacity:1;stroke-width:0.66666669"
       inkscape:connector-curvature="0" /></g></svg>